<svg width="235" height="205" viewBox="0 0 235 205" fill="none" xmlns="http://www.w3.org/2000/svg">
<path d="M185.773 67.2178H46.8886C40.5315 67.2178 35.3486 63.1274 35.3486 58.1103C35.3486 53.0932 40.5315 49.0028 46.8886 49.0028H185.773C192.13 49.0028 197.313 53.0932 197.313 58.1103C197.313 63.1274 192.13 67.2178 185.773 67.2178ZM46.8886 52.1665C42.718 52.1665 39.3573 54.8508 39.3573 58.1103C39.3573 61.4018 42.7585 64.0861 46.8886 64.0861H185.773C189.943 64.0861 193.345 61.4018 193.345 58.1103C193.345 54.8188 189.943 52.1665 185.773 52.1665H46.8886Z" fill="#344C11" fill-opacity="0.8"/>
<path d="M60.0886 137.266C55.3916 137.266 51.5854 134.262 51.5854 130.555V88.8841C51.5854 86.3915 52.6382 83.8989 54.5008 81.9176L70.5758 64.7252C71.2236 64.0222 72.4788 63.8624 73.3696 64.4057C74.2604 64.917 74.4629 65.9076 73.7745 66.6106L57.6996 83.8031C56.3229 85.273 55.5536 87.0945 55.5536 88.9161V130.587C55.5536 132.568 57.5781 134.166 60.0886 134.166C62.599 134.166 64.6236 132.568 64.6236 130.587V93.6136C64.6236 91.1849 65.5549 88.8202 67.3365 86.8389L87.0961 64.7572C87.744 64.0541 88.9587 63.8944 89.89 64.3737C90.7808 64.885 90.9832 65.8437 90.3759 66.5787L70.6162 88.6604C69.3205 90.1304 68.6322 91.8241 68.6322 93.6136V130.555C68.5917 134.23 64.7855 137.266 60.0886 137.266Z" fill="#344C11" fill-opacity="0.8"/>
<path d="M172.573 137.266C167.876 137.266 164.07 134.262 164.07 130.555V93.6137C164.07 91.8242 163.381 90.0985 162.086 88.6605L142.326 66.5788C141.678 65.8758 141.921 64.8851 142.812 64.3738C143.703 63.8625 144.958 64.0543 145.606 64.7573L165.365 86.839C167.147 88.8523 168.078 91.185 168.078 93.6137V130.555C168.078 132.536 170.103 134.134 172.613 134.134C175.124 134.134 177.148 132.536 177.148 130.555V88.8842C177.148 87.0307 176.419 85.2732 175.002 83.7712L158.927 66.5788C158.279 65.8758 158.482 64.8851 159.332 64.3738C160.183 63.8625 161.478 64.0223 162.126 64.6934L178.201 81.8858C180.104 83.931 181.116 86.3277 181.116 88.8522V130.523C181.076 134.23 177.229 137.266 172.573 137.266Z" fill="#344C11" fill-opacity="0.8"/>
<path d="M139.167 84.6983H93.817C92.8857 84.6983 92.0759 84.187 91.8735 83.452C90.4563 78.2112 87.8244 73.961 83.9372 70.3819C83.2084 69.7108 83.3299 68.7202 84.1397 68.1769C84.9495 67.6017 86.2452 67.6656 86.9336 68.3367C90.9017 71.9797 93.7361 76.4216 95.3962 81.5665H137.507C138.924 76.5175 141.637 72.0756 145.646 68.3367C146.374 67.6656 147.63 67.6017 148.439 68.1449C149.29 68.7202 149.371 69.7108 148.682 70.3499C144.795 73.961 142.244 78.3709 141.111 83.3881C140.949 84.155 140.139 84.6983 139.167 84.6983Z" fill="#344C11" fill-opacity="0.8"/>
<path d="M132.649 94.7324H100.458C99.3649 94.7324 98.4741 94.0294 98.4741 93.1666V83.1004C98.4741 82.2376 99.3649 81.5345 100.458 81.5345C101.551 81.5345 102.442 82.2376 102.442 83.1004V91.6007H130.665V83.1004C130.665 82.2376 131.555 81.5345 132.649 81.5345C133.742 81.5345 134.633 82.2376 134.633 83.1004V93.1666C134.633 94.0294 133.742 94.7324 132.649 94.7324Z" fill="#344C11" fill-opacity="0.8"/>
<path d="M141.273 124.164H90.5778C89.4846 124.164 88.5938 123.461 88.5938 122.598V102.402C88.5938 101.539 89.4846 100.836 90.5778 100.836H141.273C142.366 100.836 143.257 101.539 143.257 102.402V122.598C143.257 123.461 142.366 124.164 141.273 124.164ZM92.5619 121.032H139.289V103.968H92.5619V121.032Z" fill="#344C11" fill-opacity="0.8"/>
<path d="M106.977 103.967C105.883 103.967 104.993 103.264 104.993 102.402V93.1662C104.993 92.3034 105.883 91.6003 106.977 91.6003C108.07 91.6003 108.961 92.3034 108.961 93.1662V102.402C108.961 103.264 108.07 103.967 106.977 103.967Z" fill="#344C11" fill-opacity="0.8"/>
<path d="M126.048 103.967C124.955 103.967 124.064 103.264 124.064 102.402V93.1662C124.064 92.3034 124.955 91.6003 126.048 91.6003C127.141 91.6003 128.032 92.3034 128.032 93.1662V102.402C128.032 103.264 127.141 103.967 126.048 103.967Z" fill="#344C11" fill-opacity="0.8"/>
<path d="M115.925 124.164C107.787 124.164 101.146 118.923 101.146 112.5C101.146 106.077 107.787 100.836 115.925 100.836C124.064 100.836 130.704 106.077 130.704 112.5C130.704 118.923 124.064 124.164 115.925 124.164ZM115.925 103.968C109.973 103.968 105.114 107.802 105.114 112.5C105.114 117.197 109.973 121.032 115.925 121.032C121.877 121.032 126.736 117.197 126.736 112.5C126.736 107.802 121.877 103.968 115.925 103.968Z" fill="#344C11" fill-opacity="0.8"/>
<path d="M115.926 115.088C114.104 115.088 112.646 113.938 112.646 112.5C112.646 111.062 114.104 109.911 115.926 109.911C117.748 109.911 119.206 111.062 119.206 112.5C119.206 113.938 117.748 115.088 115.926 115.088ZM115.926 111.957C115.521 111.957 115.237 112.212 115.237 112.5C115.237 113.107 116.655 113.107 116.655 112.5C116.614 112.18 116.331 111.957 115.926 111.957Z" fill="#344C11" fill-opacity="0.8"/>
<path d="M68.6321 52.1664C67.5388 52.1664 66.648 51.4633 66.648 50.6005V43.7619C66.648 41.0776 63.8946 38.9045 60.4934 38.9045C57.0921 38.9045 54.3387 41.0776 54.3387 43.7619V50.6005C54.3387 51.4633 53.4479 52.1664 52.3547 52.1664C51.2614 52.1664 50.3706 51.4633 50.3706 50.6005V43.7619C50.3706 39.3519 54.9056 35.7728 60.4934 35.7728C66.0811 35.7728 70.6161 39.3519 70.6161 43.7619V50.6005C70.6161 51.4633 69.7253 52.1664 68.6321 52.1664Z" fill="#344C11" fill-opacity="0.8"/>
<path d="M65.1095 40.023C64.0163 40.023 63.1255 39.32 63.1255 38.4572V34.6544C63.1255 33.504 61.9512 32.5772 60.4531 32.5772C58.9954 32.5772 57.8211 33.504 57.8211 34.6544V38.4572C57.8211 39.32 56.9303 40.023 55.8371 40.023C54.7438 40.023 53.853 39.32 53.853 38.4572V34.6544C53.853 31.7783 56.8494 29.4136 60.4936 29.4136C64.1378 29.4136 67.1341 31.7783 67.1341 34.6544V38.4572C67.1341 39.32 66.2433 40.023 65.1095 40.023Z" fill="#344C11" fill-opacity="0.8"/>
<path d="M72.155 25.9941H48.7917C47.6984 25.9941 46.8076 25.2911 46.8076 24.4283C46.8076 23.5655 47.6984 22.8624 48.7917 22.8624H72.155C73.2483 22.8624 74.1391 23.5655 74.1391 24.4283C74.1391 25.2911 73.2483 25.9941 72.155 25.9941Z" fill="#344C11" fill-opacity="0.8"/>
<path d="M60.4933 32.5771C59.4001 32.5771 58.5093 31.874 58.5093 31.0112V24.3963C58.5093 23.5335 59.4001 22.8304 60.4933 22.8304C61.5866 22.8304 62.4774 23.5335 62.4774 24.3963V30.9793C62.4774 31.8421 61.5866 32.5771 60.4933 32.5771Z" fill="#344C11" fill-opacity="0.8"/>
<path d="M180.305 52.1664C179.212 52.1664 178.321 51.4633 178.321 50.6005V43.7619C178.321 41.0776 175.568 38.9045 172.167 38.9045C168.765 38.9045 166.012 41.0776 166.012 43.7619V50.6005C166.012 51.4633 165.121 52.1664 164.028 52.1664C162.935 52.1664 162.044 51.4633 162.044 50.6005V43.7619C162.044 39.3519 166.579 35.7728 172.167 35.7728C177.754 35.7728 182.289 39.3519 182.289 43.7619V50.6005C182.289 51.4633 181.399 52.1664 180.305 52.1664Z" fill="#344C11" fill-opacity="0.8"/>
<path d="M167.511 40.023C166.418 40.023 165.527 39.32 165.527 38.4572V34.6544C165.527 31.7783 168.523 29.4136 172.167 29.4136C175.812 29.4136 178.808 31.7783 178.808 34.6544V38.4572C178.808 39.32 177.917 40.023 176.824 40.023C175.731 40.023 174.84 39.32 174.84 38.4572V34.6544C174.84 33.504 173.666 32.5772 172.208 32.5772C170.75 32.5772 169.576 33.504 169.576 34.6544V38.4572C169.495 39.32 168.604 40.023 167.511 40.023Z" fill="#344C11" fill-opacity="0.8"/>
<path d="M183.829 25.9941H160.466C159.372 25.9941 158.481 25.2911 158.481 24.4283C158.481 23.5655 159.372 22.8624 160.466 22.8624H183.829C184.922 22.8624 185.813 23.5655 185.813 24.4283C185.813 25.2911 184.963 25.9941 183.829 25.9941Z" fill="#344C11" fill-opacity="0.8"/>
<path d="M172.167 32.5771C171.074 32.5771 170.183 31.874 170.183 31.0112V24.3963C170.183 23.5335 171.074 22.8304 172.167 22.8304C173.26 22.8304 174.151 23.5335 174.151 24.3963V30.9793C174.151 31.8421 173.26 32.5771 172.167 32.5771Z" fill="#344C11" fill-opacity="0.8"/>
<path d="M147.59 52.1663C146.699 52.1663 145.889 51.6869 145.646 50.9839L141.476 38.1056C141.395 37.818 141.071 37.6262 140.706 37.6262H91.6716C91.3072 37.6262 90.9833 37.818 90.9023 38.1056L87.0152 50.9519C86.7722 51.7828 85.679 52.3261 84.6262 52.1024C83.5734 51.9106 82.8851 51.0478 83.1685 50.217L87.0557 37.3706C87.582 35.6769 89.4851 34.4945 91.7121 34.4945H140.706C142.893 34.4945 144.796 35.6449 145.322 37.3386L149.493 50.217C149.776 51.0478 149.128 51.9106 148.035 52.1343C147.914 52.1343 147.752 52.1663 147.59 52.1663Z" fill="#344C11" fill-opacity="0.8"/>
<path d="M137.264 37.6261C136.414 37.6261 135.604 37.1787 135.361 36.4757L132.122 27.4001C131.555 25.8023 129.692 24.6838 127.587 24.6838H103.819C101.592 24.6838 99.6075 25.9301 99.2026 27.6877L96.9756 36.3798C96.7731 37.2426 95.7204 37.7859 94.6271 37.6261C93.5338 37.4663 92.8455 36.6354 93.048 35.7726L95.275 27.0805C96.0848 23.8849 99.6885 21.5521 103.819 21.5521H127.587C131.474 21.5521 134.916 23.6293 135.968 26.5692L139.208 35.6448C139.491 36.4757 138.884 37.3385 137.831 37.5941C137.629 37.5941 137.426 37.6261 137.264 37.6261Z" fill="#344C11" fill-opacity="0.8"/>
<path d="M108.071 19.4751C107.666 19.4751 107.261 19.3792 106.896 19.1875C106.006 18.6762 105.803 17.6856 106.451 16.9825C108.597 14.6178 111.958 13.2117 115.683 13.1478C119.57 13.1158 123.174 14.458 125.684 16.9186C126.373 17.5897 126.251 18.5803 125.36 19.1236C124.51 19.6668 123.255 19.571 122.566 18.8679C120.825 17.1743 118.396 16.2156 115.764 16.2795C113.334 16.3114 111.107 17.2382 109.69 18.804C109.285 19.2514 108.678 19.4751 108.071 19.4751Z" fill="#344C11" fill-opacity="0.8"/>
<path d="M101.875 14.1063C101.389 14.1063 100.943 13.9785 100.539 13.7228C99.7287 13.1476 99.6477 12.157 100.377 11.5178C103.899 8.35418 109.325 6.50073 115.237 6.3729C121.553 6.24508 127.546 8.09853 131.717 11.4539C132.486 12.0611 132.486 13.0837 131.676 13.6909C130.907 14.298 129.611 14.298 128.842 13.6589C125.441 10.9107 120.501 9.40874 115.318 9.50461C110.499 9.60048 106.126 11.1024 103.332 13.595C103.008 13.9146 102.442 14.1063 101.875 14.1063Z" fill="#344C11" fill-opacity="0.8"/>
<path d="M96.571 9.47274C96.0851 9.47274 95.6397 9.34491 95.2348 9.08926C94.425 8.51405 94.344 7.52341 95.0729 6.88429C99.7698 2.66607 107.018 0.173489 114.954 0.0137078C123.417 -0.209985 131.434 2.31455 137.022 6.82038C137.791 7.42754 137.791 8.45014 136.981 9.05731C136.212 9.66448 134.916 9.66448 134.147 9.02535C129.328 5.1267 122.323 2.98563 115.035 3.14541C108.192 3.27324 101.997 5.4143 98.0287 8.96144C97.7048 9.31296 97.1379 9.47274 96.571 9.47274Z" fill="#344C11" fill-opacity="0.8"/>
<path d="M232.459 204.501H1.98406C0.890803 204.501 0 203.798 0 202.935C0 202.073 0.890803 201.37 1.98406 201.37H232.419C233.512 201.37 234.403 202.073 234.403 202.935C234.443 203.798 233.552 204.501 232.459 204.501Z" fill="#344C11" fill-opacity="0.8"/>
<path d="M41.3014 166.537H25.267C23.1209 166.537 21.1774 165.77 19.8817 164.428C18.5859 163.086 18.181 161.361 18.7884 159.731C25.3075 141.803 31.0977 141.644 33.0413 141.612C38.1836 141.452 43.326 147.555 47.78 159.699C48.3874 161.329 47.9825 163.054 46.6867 164.428C45.391 165.77 43.4475 166.537 41.3014 166.537ZM33.1627 144.743C30.9357 144.807 26.8461 148.993 22.6351 160.594C22.3921 161.265 22.5541 161.968 23.0805 162.543C23.6068 163.086 24.4167 163.406 25.3075 163.406H41.3419C42.2327 163.406 43.0425 163.086 43.5689 162.543C44.0953 161.968 44.2573 161.265 44.0143 160.594C39.7223 148.898 35.5517 144.743 33.2842 144.743C33.1627 144.743 33.1627 144.743 33.1627 144.743Z" fill="#344C11" fill-opacity="0.8"/>
<path d="M45.5927 184.145C44.0946 184.145 42.6369 184.05 41.1792 183.826C40.2479 183.698 39.5596 183.027 39.5596 182.292C39.5596 176.604 43.0418 171.107 49.075 167.209C55.9585 162.767 65.3119 160.945 74.0175 162.351C75.0702 162.511 75.7991 163.342 75.5966 164.173C72.6003 176.732 58.3069 184.145 45.5927 184.145ZM43.6087 180.918C54.5413 181.781 67.6199 175.837 71.1831 165.163C64.2186 164.492 57.0112 166.122 51.5854 169.637C46.9694 172.609 44.1351 176.668 43.6087 180.918Z" fill="#344C11" fill-opacity="0.8"/>
<path d="M25.6714 187.724C25.6309 187.724 25.6309 187.724 25.5904 187.724C18.302 187.501 11.783 185.232 7.24797 181.333C3.15837 177.786 1.05284 173.28 1.37676 168.614C1.41726 167.879 2.14609 167.24 3.07739 167.144C8.9081 166.441 15.1032 168.231 20.0836 172.034C25.388 176.092 28.3438 181.685 27.6555 186.318C27.534 187.149 26.6837 187.724 25.6714 187.724ZM5.34489 170.148C5.54734 173.472 7.24797 176.635 10.2038 179.224C13.5646 182.132 18.3425 183.953 23.7278 184.465C23.4849 181.109 21.0554 177.211 17.2897 174.303C13.7265 171.554 9.59645 170.084 5.34489 170.148Z" fill="#344C11" fill-opacity="0.8"/>
<path d="M34.3362 204.501C33.2834 204.501 32.3926 203.83 32.3521 202.999C31.9067 195.394 32.5546 187.469 40.1264 181.205C40.8958 180.566 42.151 180.534 42.9608 181.141C43.7706 181.749 43.8111 182.739 43.0418 183.378C36.5227 188.811 35.9963 195.969 36.3608 202.872C36.4013 203.734 35.5509 204.469 34.4577 204.501C34.3767 204.501 34.3767 204.501 34.3362 204.501Z" fill="#344C11" fill-opacity="0.8"/>
<path d="M34.296 199.324C33.2837 199.324 32.4334 198.749 32.3119 197.95C31.6641 193.636 29.1132 190.185 24.4567 187.437C23.5659 186.925 23.4039 185.935 24.0518 185.232C24.6996 184.529 25.9549 184.401 26.8457 184.912C32.312 188.14 35.5107 192.422 36.2801 197.567C36.4015 198.43 35.6322 199.197 34.539 199.324C34.458 199.292 34.377 199.324 34.296 199.324Z" fill="#344C11" fill-opacity="0.8"/>
<path d="M33.2834 195.745C32.1901 195.745 31.2993 195.042 31.2993 194.179V164.971C31.2993 164.109 32.1901 163.406 33.2834 163.406C34.3766 163.406 35.2674 164.109 35.2674 164.971V194.179C35.2674 195.042 34.3766 195.745 33.2834 195.745Z" fill="#344C11" fill-opacity="0.8"/>
<path d="M200.108 166.537H184.073C181.927 166.537 179.984 165.77 178.688 164.428C177.392 163.086 176.987 161.36 177.595 159.731C184.114 141.803 189.904 141.643 191.847 141.611C193.831 141.58 199.865 141.42 206.586 159.699C207.194 161.328 206.789 163.054 205.493 164.428C204.238 165.77 202.254 166.537 200.108 166.537ZM191.969 144.743C189.742 144.807 185.652 148.993 181.441 160.593C181.198 161.265 181.36 161.968 181.887 162.543C182.413 163.086 183.223 163.406 184.114 163.406H200.148C201.039 163.406 201.849 163.086 202.375 162.543C202.901 161.968 203.063 161.265 202.82 160.593C198.447 148.802 194.115 144.743 191.969 144.743Z" fill="#344C11" fill-opacity="0.8"/>
<path d="M204.439 184.145C202.941 184.145 201.484 184.049 200.026 183.826C199.095 183.698 198.406 183.027 198.406 182.292C198.406 176.604 201.888 171.107 207.922 167.208C214.805 162.767 224.118 160.945 232.864 162.351C233.917 162.511 234.646 163.342 234.443 164.173C231.406 176.731 217.113 184.145 204.439 184.145ZM202.455 180.918C213.347 181.749 226.426 175.837 230.03 165.163C223.065 164.492 215.858 166.122 210.432 169.637C205.816 172.609 202.941 176.668 202.455 180.918Z" fill="#344C11" fill-opacity="0.8"/>
<path d="M184.518 187.724C184.478 187.724 184.478 187.724 184.437 187.724C177.149 187.501 170.63 185.232 166.095 181.333C162.005 177.786 159.9 173.28 160.223 168.614C160.264 167.879 160.993 167.24 161.924 167.144C167.755 166.441 173.95 168.231 178.93 172.034C184.235 176.092 187.19 181.685 186.502 186.318C186.34 187.149 185.49 187.724 184.518 187.724ZM164.192 170.148C164.394 173.472 166.095 176.635 169.05 179.224C172.411 182.132 177.189 183.985 182.575 184.465C182.332 181.109 179.902 177.211 176.136 174.303C172.533 171.554 168.241 170.084 164.192 170.148Z" fill="#344C11" fill-opacity="0.8"/>
<path d="M193.183 204.501C192.13 204.501 191.24 203.83 191.199 202.999C190.794 195.394 191.442 187.469 198.973 181.205C199.743 180.566 200.998 180.534 201.808 181.141C202.618 181.748 202.658 182.739 201.889 183.378C195.37 188.811 194.843 195.969 195.208 202.872C195.248 203.734 194.398 204.469 193.305 204.501C193.224 204.501 193.183 204.501 193.183 204.501Z" fill="#344C11" fill-opacity="0.8"/>
<path d="M193.143 199.324C192.131 199.324 191.281 198.749 191.159 197.95C190.511 193.636 187.96 190.185 183.304 187.437C182.413 186.925 182.251 185.935 182.899 185.232C183.547 184.529 184.802 184.401 185.693 184.912C191.159 188.14 194.358 192.422 195.127 197.567C195.249 198.43 194.479 199.196 193.386 199.324C193.305 199.292 193.224 199.324 193.143 199.324Z" fill="#344C11" fill-opacity="0.8"/>
<path d="M192.09 195.745C190.996 195.745 190.105 195.042 190.105 194.179V164.971C190.105 164.109 190.996 163.406 192.09 163.406C193.183 163.406 194.074 164.109 194.074 164.971V194.179C194.114 195.042 193.223 195.745 192.09 195.745Z" fill="#344C11" fill-opacity="0.8"/>
<path d="M120.056 166.537H104.022C101.876 166.537 99.9323 165.77 98.6365 164.428C97.3408 163.086 96.9359 161.36 97.5433 159.731C104.062 141.803 109.853 141.643 111.796 141.611C113.78 141.58 119.813 141.42 126.535 159.699C127.142 161.328 126.737 163.054 125.442 164.428C124.146 165.77 122.162 166.537 120.056 166.537ZM111.877 144.743C109.65 144.807 105.561 148.993 101.349 160.593C101.107 161.265 101.268 161.968 101.795 162.543C102.321 163.086 103.131 163.406 104.022 163.406H120.056C120.947 163.406 121.757 163.086 122.283 162.543C122.81 161.968 122.972 161.265 122.729 160.593C118.356 148.802 114.023 144.743 111.877 144.743Z" fill="#344C11" fill-opacity="0.8"/>
<path d="M124.348 184.145C122.849 184.145 121.392 184.049 119.934 183.826C119.003 183.698 118.314 183.027 118.314 182.292C118.314 176.604 121.797 171.107 127.83 167.208C134.713 162.767 144.026 160.945 152.772 162.351C153.825 162.511 154.554 163.342 154.351 164.173C151.315 176.731 137.062 184.145 124.348 184.145ZM122.364 180.918C133.296 181.78 146.334 175.837 149.938 165.163C142.974 164.492 135.766 166.122 130.34 169.637C125.724 172.609 122.89 176.668 122.364 180.918Z" fill="#344C11" fill-opacity="0.8"/>
<path d="M104.426 187.724C104.386 187.724 104.386 187.724 104.345 187.724C97.0569 187.501 90.5379 185.232 86.0029 181.333C81.9133 177.786 79.8077 173.28 80.1316 168.614C80.1721 167.879 80.901 167.24 81.8323 167.144C87.663 166.441 93.8581 168.231 98.8385 172.034C104.143 176.092 107.099 181.685 106.41 186.318C106.289 187.149 105.398 187.724 104.426 187.724ZM84.0998 170.148C84.3022 173.472 86.0029 176.635 88.9587 179.224C92.3195 182.132 97.0974 183.985 102.483 184.465C102.24 181.109 99.8103 177.211 96.0446 174.303C92.4814 171.554 88.2299 170.084 84.0998 170.148Z" fill="#344C11" fill-opacity="0.8"/>
<path d="M113.091 204.501C112.039 204.501 111.148 203.83 111.107 202.999C110.702 195.394 111.35 187.469 118.882 181.205C119.651 180.566 120.906 180.534 121.716 181.141C122.526 181.748 122.566 182.739 121.797 183.378C115.278 188.811 114.751 195.969 115.116 202.872C115.156 203.734 114.306 204.469 113.213 204.501C113.132 204.501 113.091 204.501 113.091 204.501Z" fill="#344C11" fill-opacity="0.8"/>
<path d="M113.051 199.324C112.039 199.324 111.188 198.749 111.067 197.95C110.419 193.636 107.868 190.185 103.212 187.437C102.321 186.925 102.159 185.935 102.807 185.232C103.455 184.529 104.71 184.401 105.601 184.912C111.067 188.14 114.266 192.422 115.035 197.567C115.156 198.43 114.387 199.196 113.294 199.324C113.213 199.292 113.132 199.324 113.051 199.324Z" fill="#344C11" fill-opacity="0.8"/>
<path d="M112.038 195.745C110.945 195.745 110.054 195.042 110.054 194.179V164.971C110.054 164.109 110.945 163.406 112.038 163.406C113.132 163.406 114.022 164.109 114.022 164.971V194.179C114.022 195.042 113.132 195.745 112.038 195.745Z" fill="#344C11" fill-opacity="0.8"/>
</svg>
