<svg width="174" height="171" viewBox="0 0 174 171" fill="none" xmlns="http://www.w3.org/2000/svg">
<path d="M95.8596 19.0835C95.8596 29.6216 87.9825 38.1631 78.2663 38.165C68.5501 38.1631 60.673 29.6216 60.673 19.0835C60.673 8.54528 68.5483 0.00377442 78.2646 0C87.9808 0.00377442 95.8596 8.54528 95.8596 19.0835ZM123.517 88.3459L113.498 65.9561C107.018 51.4246 102.653 41.4507 89.7486 41.4507H66.7805C53.8766 41.4507 49.5091 51.4246 43.0311 65.9561L31.1416 92.528C29.3755 96.4477 30.8875 101.156 34.505 103.072C38.1225 104.987 42.5021 103.359 44.2665 99.437L60.7061 64.9974V162.423C60.7061 167.16 64.247 171 68.6145 171C72.9819 171 76.5228 167.16 76.5228 162.423V112.481H80.0063V162.423C80.0063 167.16 83.5472 171 87.9147 171C92.2838 171 95.823 167.16 95.823 162.423V64.9974C95.823 64.9974 112.593 100.09 112.781 100.392C115.175 94.4133 120.298 89.6688 123.517 88.3459ZM146.791 160.528V125.541C143.104 130.004 135.812 130.153 135.812 130.153C135.812 130.153 128.521 130.004 124.832 125.541V160.528C124.832 160.528 120.107 160.973 120.107 166.097C120.107 168.464 122.449 171 125.271 171C131.123 171 134.281 168.549 134.281 164.24C134.281 159.932 134.281 147.459 134.281 147.459C134.324 146.719 134.613 145.876 135.828 145.876C136.983 145.876 137.281 146.778 137.341 147.399C137.341 147.399 137.341 159.828 137.341 164.24C137.341 168.65 140.5 171 146.353 171C149.174 171 151.516 168.464 151.516 166.097C151.516 160.973 146.791 160.528 146.791 160.528ZM122.01 159.658C122.01 159.658 122.01 138.506 122.008 138.495C102.132 130.427 114.137 160.528 114.137 160.528C114.137 160.528 109.411 160.973 109.411 166.097C109.411 168.464 111.755 171 114.572 171C116.884 171 118.643 169.841 118.643 169.841C114.923 163.111 120.655 159.658 122.01 159.658ZM159.28 155.191C158.383 158.286 157.491 160.528 157.491 160.528C157.491 160.528 162.217 160.973 162.217 166.097C162.217 168.464 159.873 171 157.054 171C154.742 171 152.984 169.841 152.984 169.841C156.704 163.113 150.973 159.658 149.615 159.658C149.615 159.658 149.614 138.506 149.615 138.495C157.762 135.188 160.551 138.295 161.009 143.107C171.134 146.2 174 137.119 174 137.119C173.266 150.443 161.16 154.621 159.28 155.191ZM120.192 109.675C121.662 106.261 125.14 98.7086 126.774 99.5522C126.774 99.5522 121.394 111.732 121.394 113.276C121.394 114.805 121.925 118.228 123.916 121.378C125.723 124.237 129.254 127.639 135.812 127.639C147.783 127.639 150.23 116.309 150.23 113.276C150.23 111.828 144.82 99.5654 144.82 99.5654C146.442 98.6086 149.957 106.239 151.437 109.673C152.968 113.236 157.564 115.135 157.564 106.944C157.564 98.9596 149.466 91.3938 146.617 90.9182C144.517 90.5672 142.781 92.5506 142.104 93.5093C140.392 92.6959 138.311 92.2977 135.793 92.2977C133.265 92.2977 131.175 92.6997 129.454 93.5169C128.761 92.5317 127.072 90.5709 125.005 90.9163C122.16 91.3919 114.062 98.9577 114.062 106.942C114.065 115.135 118.659 113.236 120.192 109.675ZM46.7808 169.411C46.7808 169.411 47.188 170.458 48.5869 170.458C51.143 170.458 52.5559 168.16 52.5559 166.014C52.5559 161.368 48.2685 160.964 48.2685 160.964C48.2685 160.964 61.7571 133.656 43.7288 140.978C43.7271 140.988 43.7271 160.175 43.7271 160.175C44.9538 160.173 50.1564 163.304 46.7808 169.411ZM1.7754 115.792C7.91242 117.681 6.01755 124.403 4.17488 129.176C1.37694 136.447 1.15074 142.299 3.5015 146.574C5.32851 149.888 8.23259 151.322 10.1188 151.928C11.5525 156.659 13.6806 160.964 13.6806 160.964C13.6806 160.964 9.39491 161.366 9.39491 166.012C9.39491 168.16 10.8043 170.456 13.3639 170.456C14.7594 170.456 15.17 169.409 15.17 169.409C11.7961 163.302 16.9935 160.171 18.2255 160.171C18.2255 160.171 18.2255 140.984 18.2237 140.975C10.8931 137.998 8.77025 140.748 8.83637 145.057C5.69043 142.484 6.70834 136.615 8.77025 131.255C11.2393 124.852 11.6743 119.979 10.0961 116.36C8.89727 113.614 6.6457 111.734 3.20395 110.615C1.88851 110.188 0.501716 110.996 0.106733 112.429C-0.289989 113.859 0.452996 115.386 1.7754 115.792ZM16.2332 166.399C16.2332 168.618 18.4308 171 21.0791 171C26.574 171 29.5408 168.796 29.5408 164.653C29.5408 162.889 29.5408 159.762 29.5408 156.753C26.588 156.068 24.3747 153.223 24.3747 149.816C24.7366 153.36 27.5467 155.325 30.9136 155.325C34.2771 155.325 37.0872 153.36 37.4491 149.816C37.4491 153.175 35.3002 155.987 32.41 156.719C32.41 159.752 32.41 162.911 32.41 164.651C32.41 168.698 35.375 170.998 40.8717 170.998C43.5183 170.998 45.7177 168.616 45.7177 166.397C45.7177 161.583 41.2824 161.164 41.2824 161.164V136.34C41.2824 136.34 38.4427 140.21 30.9763 140.21C23.5081 140.21 20.6667 136.34 20.6667 136.34V161.164C20.6667 161.164 16.2332 161.585 16.2332 166.399ZM17.9175 121.727C17.5364 122.867 17.3328 124.073 17.3328 125.322C17.3328 132.203 23.5116 137.785 31.1381 137.785C38.7611 137.785 44.9451 132.205 44.9451 125.322C44.9451 124.073 44.7363 122.865 44.3587 121.727C45.1069 119.147 45.9717 113.589 42.6291 106.727L36.1772 113.721C34.6164 113.166 27.6598 113.166 26.0973 113.721L19.6488 106.727C16.301 113.591 17.1675 119.147 17.9175 121.727Z" fill="#344C11" fill-opacity="0.8"/>
</svg>
