<svg width="218" height="171" viewBox="0 0 218 171" fill="none" xmlns="http://www.w3.org/2000/svg">
<g clip-path="url(#clip0_74_518)">
<path d="M156.1 141.9C156.3 141.6 156.7 141.4 157.1 141.5C157.5 141.6 157.8 141.9 157.9 142.3C158.9 147.4 161.5 151.6 165.4 154.9C169.4 158.3 174 160 179 160C185.1 160 190.2 157.9 194.6 153.5C198.8 149.2 201 143.8 201 137.7C201 131 198.4 125.4 193.2 121C193 120.8 192.8 120.5 192.9 120.2L193.5 112.9C193.5 112.6 193.7 112.3 194 112.1C194.3 111.9 194.7 112 195 112.2C199.2 114.9 202.6 118.6 205.1 123.1C207.7 127.7 209 132.6 209 137.7C209 146.1 206.1 153.3 200.3 159.2C194.4 165.1 187.3 168 179.2 168C173.3 168 168 166.2 162.8 162.5C157.8 158.9 154.1 154.3 151.8 148.8C151.7 148.5 151.7 148.1 151.9 147.8L156.1 141.9ZM163.9 160.9C168.7 164.3 173.7 166 179.1 166C186.8 166 193.3 163.3 198.8 157.8C204.2 152.3 207 145.5 207 137.7C207 132.9 205.8 128.4 203.4 124C201.3 120.2 198.6 117.1 195.3 114.7L194.9 119.8C200.3 124.6 203 130.6 203 137.7C203 144.4 200.7 150.2 196 154.9C191.3 159.6 185.6 162 179 162C173.5 162 168.5 160.1 164.1 156.5C160.3 153.4 157.8 149.5 156.4 144.9L153.6 148.7C155.9 153.6 159.3 157.6 163.9 160.9Z" fill="#344C11" fill-opacity="0.8"/>
<path d="M180.7 89.7C178.3 89.7 176.3 88.9 174.8 87.2C173.2 85.5 172.4 83.5 172.4 81.3C172.4 78.9 173.2 76.9 174.9 75.4C176.6 73.8 178.6 73 180.8 73C183.2 73 185.2 73.8 186.7 75.5C188.4 77.3 189.2 79.2 189.2 81.3C189.2 83.6 188.3 85.7 186.7 87.2C184.8 88.8 182.8 89.7 180.7 89.7ZM185.1 76.8C183.9 75.6 182.5 75 180.6 75C178.9 75 177.5 75.6 176.1 76.9C174.9 78.1 174.3 79.5 174.3 81.4C174.3 83.1 174.9 84.5 176.2 85.9C177.4 87.1 178.8 87.7 180.7 87.7C182.4 87.7 183.9 87 185.3 85.7C186.8 84.3 187.1 82.5 187.1 81.2C187.1 79.7 186.5 78.2 185.1 76.8Z" fill="#344C11" fill-opacity="0.8"/>
<path d="M128.8 145.3C129.8 144.1 131.2 144 132.1 144H135.4L149.9 124C152.1 120.1 154.9 118.2 158.1 118.2H173.7V112.8H159.9C155.6 112.8 155 110.4 155 109C155 107.6 155.6 105.2 159.9 105.2H173.7V98.8C173.9 95.8 175.4 92.3 182.1 92.5C186.3 92.6 188.6 94.9 188.6 98.9V124.5V124.6C188.3 127.6 186.6 131.1 180.3 131.1H158.6L146 147.2L142.4 152.8C142.2 153.1 141.9 153.2 141.6 153.2H132.2C131 153.2 130 152.8 129 151.9C128 151.1 127.6 150 127.6 148.5C127.5 147.4 127.9 146.3 128.8 145.3ZM130.2 150.5C130.9 151.1 131.4 151.3 132.1 151.3H141L144.4 146.1L157.3 129.5C157.5 129.3 157.8 129.1 158.1 129.1H180.3C185.5 129.1 186.5 126.5 186.7 124.4V98.7C186.7 95.8 185.2 94.4 182.1 94.3C176.6 94.2 175.8 96.8 175.7 98.7V106.1C175.7 106.6 175.3 107.1 174.7 107.1H159.9C157 107.1 157 108.4 157 109C157 109.6 157 110.9 159.9 110.9H174.7C175.2 110.9 175.7 111.3 175.7 111.9V119.3C175.7 119.8 175.3 120.3 174.7 120.3H158.1C155.6 120.3 153.5 121.9 151.6 125.2C151.6 125.2 151.6 125.3 151.5 125.3L136.7 145.5C136.5 145.8 136.2 145.9 135.9 145.9H132.1C131.2 145.9 130.7 146.1 130.3 146.5C129.7 147.1 129.5 147.8 129.5 148.5C129.4 149.5 129.7 150 130.2 150.5Z" fill="#344C11" fill-opacity="0.8"/>
</g>
<path fill-rule="evenodd" clip-rule="evenodd" d="M148.561 1.11565H62.4471C60.0797 1.11565 58.0082 3.06804 58.0082 5.29933V35.7008L61.2634 32.0749C62.743 30.4014 64.8145 29.2858 67.1819 29.0069V9.76193H143.826V82.558H67.1819V56.6192L65.1104 58.8505C63.3348 60.8029 60.6715 62.1974 58.0082 62.4764V87.0206C58.0082 89.2519 60.0797 91.2043 62.4471 91.2043H87.3047L74.8759 128.579C74.284 131.089 75.7637 133.32 78.427 133.878C80.7944 134.436 83.4577 133.041 84.0496 130.531L97.0702 91.2043H114.234L127.255 130.531C127.846 133.041 130.51 134.436 132.877 133.878C135.54 133.32 137.316 131.089 136.724 128.579L123.999 91.2043H148.561C150.929 91.2043 153 89.2519 153 87.0206V5.29933C153 3.06804 150.929 1.11565 148.561 1.11565ZM29.5994 26.2178C37.2935 26.2178 43.5079 20.0817 43.5079 13.1089C43.5079 5.85716 37.2935 0 29.5994 0C21.9054 0 15.691 5.85716 15.691 13.1089C15.691 20.0817 22.2013 26.2178 29.5994 26.2178ZM32.2627 28.728H27.232C23.0891 28.728 19.8339 30.4014 17.4665 33.1906L2.07843 46.8573C-0.584895 48.8097 -0.584895 52.4355 1.48658 54.6668L14.2113 68.0546C16.5787 70.2859 20.1298 70.5648 22.4972 68.3335C25.1606 66.3811 25.1606 62.7553 23.0891 60.524L14.2113 51.3199L26.9361 40.7212L19.538 50.2042L26.6402 57.4559C30.4872 61.6396 30.1913 68.0546 25.7524 71.6805C22.7932 74.1907 18.6502 75.0274 15.0991 73.6329C15.0991 73.6329 15.0991 99.5717 15.0991 127.184C15.0991 131.089 18.3543 133.878 22.4972 133.878C26.3442 133.878 29.5994 131.089 29.5994 127.184C29.5994 99.5717 29.5994 115.47 29.5994 87.2996H34.3342C34.3342 115.47 34.3342 99.5717 34.3342 127.184C34.3342 129.136 33.7424 131.089 32.8546 132.483C34.0383 133.599 35.5179 133.878 36.9975 133.878C40.8446 133.878 44.0997 131.089 44.0997 127.184C44.0997 99.5717 44.0997 111.286 44.0997 39.8845C44.0997 33.7484 38.7731 28.728 32.2627 28.728ZM102.397 26.2178C102.101 25.381 100.917 25.1021 100.029 25.381L73.1003 34.3062C70.437 32.6327 66.8859 32.9117 64.8145 35.143L56.2326 44.626L48.8345 38.4899C48.8345 38.7688 48.8345 39.3266 48.8345 39.8845V53.2723L53.2734 56.6192C55.6408 58.5716 59.4878 58.2927 61.5593 56.0614L71.6207 44.9049L79.9066 40.1634L101.509 28.4491C102.397 27.8912 102.693 27.0545 102.397 26.2178Z" fill="#344C11" fill-opacity="0.8"/>
<defs>
<clipPath id="clip0_74_518">
<rect width="90" height="101" fill="white" transform="matrix(-1 0 0 1 218 70)"/>
</clipPath>
</defs>
</svg>
