<svg width="23" height="27" viewBox="0 0 23 27" fill="none" xmlns="http://www.w3.org/2000/svg">
<mask id="mask0_486_553" style="mask-type:alpha" maskUnits="userSpaceOnUse" x="0" y="0" width="23" height="27">
<path fill-rule="evenodd" clip-rule="evenodd" d="M0 11.0903C0 4.95719 5.12518 0 11.3246 0C17.5415 0 22.6667 4.95719 22.6667 11.0903C22.6667 14.1809 21.5427 17.0502 19.6927 19.4821C17.6517 22.1647 15.1362 24.5019 12.3047 26.3366C11.6567 26.7605 11.0718 26.7925 10.3606 26.3366C7.51298 24.5019 4.99745 22.1647 2.974 19.4821C1.12265 17.0502 0 14.1809 0 11.0903ZM7.5923 11.4357C7.5923 13.4903 9.26887 15.1062 11.3246 15.1062C13.3816 15.1062 15.0744 13.4903 15.0744 11.4357C15.0744 9.39701 13.3816 7.70244 11.3246 7.70244C9.26887 7.70244 7.5923 9.39701 7.5923 11.4357Z" fill="#68BF7B"/>
</mask>
<g mask="url(#mask0_486_553)">
<rect x="-39" y="-25" width="100" height="100" fill="#2A5267"/>
</g>
</svg>
