<svg width="18" height="18" viewBox="0 0 18 18" fill="none" xmlns="http://www.w3.org/2000/svg">
<mask id="mask0_486_555" style="mask-type:alpha" maskUnits="userSpaceOnUse" x="0" y="0" width="18" height="18">
<path d="M3.86691 18H0V5.9765H3.86691V18ZM2.06721 4.14842H2.03949C0.80194 4.14842 0.0006001 3.22715 0.0006001 2.07391C0.0006001 0.89958 0.82303 0 2.0883 0C3.35357 0 4.1278 0.89295 4.15551 2.07391C4.15491 3.22715 3.35357 4.14842 2.06721 4.14842ZM17.9994 18H14.1325V11.4258C14.1325 9.8508 13.5697 8.7747 12.1707 8.7747C11.1019 8.7747 10.4692 9.4977 10.1878 10.202C10.0824 10.4551 10.0541 10.7998 10.0541 11.1516V18H6.18718V5.9765H10.0541V7.6497C10.6168 6.8484 11.4959 5.69512 13.5414 5.69512C16.0798 5.69512 18 7.3683 18 10.9757L17.9994 18Z" fill="#68BF7B"/>
</mask>
<g mask="url(#mask0_486_555)">
<rect x="-21" y="-22" width="71" height="73" fill="#2A5267"/>
</g>
</svg>
