<svg width="27" height="27" viewBox="0 0 27 27" fill="none" xmlns="http://www.w3.org/2000/svg">
<mask id="mask0_486_545" style="mask-type:alpha" maskUnits="userSpaceOnUse" x="0" y="0" width="27" height="27">
<path d="M25.9138 0.775973C25.2469 0.0914629 24.2598 -0.163547 23.3395 0.104883L1.87733 6.34603C0.906263 6.61581 0.217983 7.39028 0.0325731 8.37408C-0.156837 9.37538 0.504773 10.6464 1.36912 11.1779L8.0799 15.3024C8.7682 15.7252 9.6565 15.6192 10.2261 15.0447L17.9106 7.31238C18.2974 6.90978 18.9376 6.90978 19.3245 7.31238C19.7113 7.70168 19.7113 8.33248 19.3245 8.73508L11.6267 16.4688C11.0558 17.0419 10.949 17.9344 11.3692 18.627L15.4696 25.405C15.9498 26.2103 16.7768 26.6667 17.6838 26.6667C17.7905 26.6667 17.9106 26.6667 18.0173 26.6533C19.0577 26.519 19.8847 25.8077 20.1915 24.801L26.5541 3.36638C26.8342 2.4537 26.5808 1.46049 25.9138 0.775973Z" fill="#68BF7B"/>
</mask>
<g mask="url(#mask0_486_545)">
<rect x="-17" y="-25" width="74" height="75" fill="#2A5267"/>
</g>
</svg>
