<svg width="32" height="31" viewBox="0 0 32 31" fill="none" xmlns="http://www.w3.org/2000/svg">
<mask id="mask0_488_582" style="mask-type:alpha" maskUnits="userSpaceOnUse" x="4" y="0" width="24" height="25">
<g clip-path="url(#clip0_488_582)">
<mask id="mask1_488_582" style="mask-type:luminance" maskUnits="userSpaceOnUse" x="4" y="0" width="25" height="25">
<path d="M28.0005 0.5H4.00049V24.5H28.0005V0.5Z" fill="white"/>
</mask>
<g mask="url(#mask1_488_582)">
<path d="M27.996 5.05775C27.1132 5.45 26.166 5.71475 25.1685 5.8325C26.1847 5.2235 26.9655 4.259 27.3337 3.11C26.3812 3.6725 25.329 4.085 24.2077 4.304C23.3092 3.34775 22.0297 2.75 20.6137 2.75C17.8942 2.75 15.6915 4.9535 15.6915 7.67225C15.6915 8.05775 15.7342 8.43425 15.819 8.79425C11.7262 8.58725 8.09924 6.6275 5.67149 3.65C5.24774 4.3775 5.00399 5.2235 5.00399 6.125C5.00399 7.835 5.87399 9.34025 7.19399 10.2238C6.38699 10.1975 5.62799 9.97625 4.96424 9.60875V9.66875C4.96424 12.0553 6.65924 14.045 8.91224 14.4972C8.49974 14.6097 8.06474 14.6698 7.61474 14.6698C7.29749 14.6698 6.98999 14.6397 6.68999 14.582C7.31549 16.5365 9.13499 17.96 11.2875 18.0005C9.60374 19.3205 7.48124 20.108 5.17499 20.108C4.77749 20.108 4.38524 20.0855 4.00049 20.0405C6.17999 21.4355 8.76749 22.25 11.5477 22.25C20.6017 22.25 25.554 14.75 25.554 8.24375C25.554 8.03075 25.548 7.81775 25.539 7.60625C26.5012 6.9125 27.3352 6.04625 27.996 5.05775Z" fill="#68BF7B"/>
</g>
</g>
</mask>
<g mask="url(#mask0_488_582)">
<rect x="-39" y="-55" width="138" height="140" fill="#2A5267"/>
</g>
<defs>
<clipPath id="clip0_488_582">
<rect width="24" height="25" fill="white" transform="translate(4)"/>
</clipPath>
</defs>
</svg>
