<svg width="200" height="147" viewBox="0 0 200 147" fill="none" xmlns="http://www.w3.org/2000/svg">
<path d="M176.812 106H178.344V117.031H176.812V106Z" fill="#6FCE6F"/>
<path d="M173.906 103.406C173.875 106.625 175.125 109.844 177.594 112.281C182.5 107.375 182.5 99.4062 177.594 94.5C175.125 96.9687 173.906 100.188 173.906 103.406Z" fill="#6FCE6F"/>
<path d="M174.031 104.844C176.313 107.125 177.719 110.25 177.719 113.719C170.781 113.719 165.125 108.094 165.156 101.156C168.625 101.156 171.781 102.594 174.031 104.844Z" fill="#7FDD7F"/>
<path d="M181.125 104.844C178.844 107.125 177.438 110.25 177.438 113.719C184.375 113.719 190.031 108.094 190 101.156C186.531 101.156 183.406 102.594 181.125 104.844Z" fill="#7FDD7F"/>
<path d="M148.875 103.344C150.781 102.562 152.875 102.375 154.875 101.906C158.656 101.031 162.219 99.1875 165.125 96.5937C168.75 93.3437 171.25 89.0312 173.906 84.9375C175.781 82 177.844 79.0625 180.375 76.7187C181.219 75.9375 180.563 74.5312 179.438 74.6562C174.969 75.125 170.469 75.5625 166 76.0937C162.25 76.5312 158.219 76.7187 154.688 78.2187C151.188 79.7187 148.375 82.25 146.563 85.625C144.031 90.3437 143.438 96.2187 144.219 101.5C144.406 102.75 145.313 106.281 145.156 106.437C146.313 105.187 147.219 104.031 148.875 103.344Z" fill="#7FDD7F"/>
<path d="M148.469 98.6562C144.844 104.094 142.562 110.438 141.781 117.031H143.938C144.406 110.844 146.25 104.719 149.5 99.3125C153.625 92.4062 159.781 86.5937 167.219 83.1875C159.594 86.1875 153.062 91.7812 148.469 98.6562Z" fill="#6FCE6F"/>
<path d="M134.219 107.531C132.719 106.938 131.094 106.781 129.531 106.406C126.594 105.719 123.813 104.281 121.563 102.281C118.719 99.75 116.781 96.4063 114.719 93.1875C113.375 91.125 111.938 89.0313 110.219 87.3125C109.406 86.5 110.063 85.1563 111.188 85.2813C114.438 85.625 117.656 85.9375 120.875 86.3125C123.813 86.6563 126.938 86.7813 129.688 87.9688C132.406 89.1563 134.594 91.125 136.031 93.75C138 97.4063 138.469 102 137.875 106.094C137.719 107.063 137 109.813 137.125 109.938C136.219 108.938 135.531 108.063 134.219 107.531Z" fill="#7FDD7F"/>
<path d="M137.969 92.4063C136.719 91.375 135.219 90.75 133.844 89.9688C131.219 88.4375 129 86.25 127.438 83.6563C125.469 80.4063 124.625 76.625 123.594 72.9688C122.938 70.5938 122.188 68.1875 121.032 66C120.5 65 121.532 63.9063 122.563 64.3438C125.563 65.625 128.563 66.9063 131.532 68.2188C134.219 69.4063 137.188 70.4688 139.469 72.4063C141.719 74.3438 143.25 76.875 143.813 79.8125C144.625 83.9063 143.688 88.4375 141.907 92.1563C141.469 93.0313 139.969 95.4375 140.063 95.625C139.469 94.375 139.063 93.3125 137.969 92.4063Z" fill="#7FDD7F"/>
<path d="M137.719 117.031H139.812C139.062 112.281 137.312 107.719 134.656 103.812C131.031 98.4687 125.906 94.1562 119.969 91.8125C125.75 94.5 130.5 99.0625 133.656 104.438C135.906 108.312 137.281 112.625 137.719 117.031Z" fill="#6FCE6F"/>
<path d="M139.594 98.0625C140.125 104.375 140.281 110.688 140.156 117H142.312C142.094 110.625 141.656 104.25 140.781 97.9375C140.219 93.9375 139.625 89.9688 138.688 86.0312C137.75 82.125 136.312 78.25 133.969 74.9688C136.156 78.375 137.375 82.25 138.094 86.1562C138.812 90.0938 139.219 94.0938 139.594 98.0625Z" fill="#6FCE6F"/>
<path d="M179.438 74.6875C180.594 74.5625 181.219 75.9687 180.375 76.75C177.844 79.0937 175.781 82.0312 173.906 84.9375C171.281 89.0625 168.781 93.3437 165.125 96.625C162.219 99.2187 158.656 101.062 154.875 101.937C152.875 102.406 150.781 102.594 148.875 103.375C147.219 104.062 146.312 105.187 145.156 106.469C146 104.969 146.688 103.687 148.188 102.687C149.906 101.562 151.906 100.937 153.781 100.094C157.312 98.4687 160.438 95.9687 162.75 92.8437C165.656 88.9062 167.281 84.2187 169.031 79.6562L169.062 79.625C170 77.1562 172.281 75.4062 174.906 75.125C176.438 75 177.938 74.8437 179.438 74.6875Z" fill="#6FCE6F"/>
<path d="M137.125 109.938C136.219 108.906 135.531 108.062 134.219 107.5C132.75 106.906 131.125 106.75 129.531 106.375C126.562 105.719 123.812 104.281 121.562 102.25C118.719 99.7188 116.781 96.375 114.719 93.1562C112.656 89.9688 110.344 86.7812 107.094 84.8125C109.812 85.0937 112.5 85.375 115.219 85.6562C116.938 85.8438 118.406 86.9688 119 88.5938V88.625C120.281 92.1875 121.438 95.875 123.656 99C125.406 101.469 127.812 103.5 130.531 104.812C131.969 105.5 133.531 106.031 134.844 106.969C135.969 107.75 136.469 108.75 137.125 109.938Z" fill="#6FCE6F"/>
<path d="M140 95.5625C139.438 94.3438 139.031 93.2812 137.938 92.4062C136.688 91.375 135.188 90.75 133.781 89.9688C131.156 88.4375 128.938 86.25 127.406 83.6562C125.437 80.4062 124.562 76.625 123.562 72.9375C122.531 69.2812 121.281 65.5312 118.75 62.7188C121.156 63.75 123.594 64.7812 126 65.8438C127.656 66.5625 128.75 68.125 128.844 69.9062V69.9375C129.031 73.75 129.062 77.625 130.25 81.2188C131.219 84.0938 132.906 86.7188 135.125 88.75C136.312 89.8438 137.625 90.7812 138.625 92.0625C139.562 93.1562 139.75 94.2812 140 95.5625Z" fill="#6FCE6F"/>
<mask id="mask0_226_417" style="mask-type:luminance" maskUnits="userSpaceOnUse" x="0" y="105" width="200" height="42">
<path d="M0 105.547H200V146.88H0V105.547Z" fill="white"/>
</mask>
<g mask="url(#mask0_226_417)">
<path d="M184.25 115.063C182.812 115.063 181.438 115.25 180.125 115.625C176.969 116.469 173.75 115.438 171.469 113.094C168.594 110.156 164.594 108.344 160.188 108.344C155.688 108.344 151.281 110.219 148.188 113.219C145.969 115.406 142.812 116.438 139.812 115.563C138.688 115.219 137.469 115.063 136.094 115.063C134.812 115.063 133.5 115.219 132.188 115.5C128.906 116.219 125.625 114.75 123.594 112.094C120.906 108.625 116.906 106.438 112.062 106.438C112.062 106.438 112.031 106.438 112 106.438C107.312 106.406 103.156 109.063 100.625 113.031C98.4062 116.531 94.5 118.875 90.0312 118.875L0 117.031C0 117.031 0 126.656 0 131.531V146.594H200V130.844C200 122.094 192.906 115.063 184.25 115.063Z" fill="#EAC0A4"/>
</g>
<mask id="mask1_226_417" style="mask-type:luminance" maskUnits="userSpaceOnUse" x="0" y="114" width="200" height="33">
<path d="M0 114.88H200V146.88H0V114.88Z" fill="white"/>
</mask>
<g mask="url(#mask1_226_417)">
<path d="M187.688 115.469C185.844 126.25 176.5 134.125 165.531 134.125H0V146.562H200V130.812C200 123.281 194.688 117.031 187.688 115.469Z" fill="#DDB294"/>
</g>
<path d="M169.5 121.969C169.5 123.563 168.219 124.844 166.656 124.844C165.062 124.844 163.812 123.563 163.812 121.969C163.812 120.375 165.094 119.125 166.656 119.125C168.219 119.125 169.5 120.406 169.5 121.969Z" fill="#DDB294"/>
<path d="M147.656 132.781C147.656 134.375 146.375 135.656 144.812 135.656C143.219 135.656 141.969 134.375 141.969 132.781C141.969 131.188 143.25 129.938 144.812 129.938C146.375 129.938 147.656 131.219 147.656 132.781Z" fill="#DDB294"/>
<path d="M106.656 121.969C106.656 123.563 105.375 124.844 103.812 124.844C102.25 124.844 100.969 123.563 100.969 121.969C100.969 120.375 102.25 119.125 103.812 119.125C105.375 119.125 106.656 120.406 106.656 121.969Z" fill="#DDB294"/>
<path d="M67.125 129.344C67.125 130.938 65.8438 132.219 64.2812 132.219C62.6875 132.219 61.4375 130.938 61.4375 129.344C61.4375 127.75 62.7188 126.5 64.2812 126.5C65.875 126.5 67.125 127.781 67.125 129.344Z" fill="#DDB294"/>
<path d="M46.5938 134.469C46.5938 136.063 45.3125 137.344 43.75 137.344C42.1563 137.344 40.9062 136.063 40.9062 134.469C40.9062 132.875 42.1875 131.625 43.75 131.625C45.3125 131.594 46.5938 132.875 46.5938 134.469Z" fill="#DDB294"/>
<path d="M19.8125 127.688C19.8125 129.281 18.5312 130.562 16.9688 130.562C15.4062 130.562 14.125 129.281 14.125 127.688C14.125 126.094 15.4062 124.844 16.9688 124.844C18.5312 124.844 19.8125 126.125 19.8125 127.688Z" fill="#DDB294"/>
<path d="M129.562 126.5C129.562 129 127.531 131.031 125.031 131.031C122.531 131.031 120.5 129 120.5 126.5C120.5 124 122.531 121.969 125.031 121.969C127.531 121.969 129.562 124 129.562 126.5Z" fill="#DDB294"/>
<path d="M91.4688 134.469C91.4688 136.969 89.4375 139 86.9375 139C84.4375 139 82.4062 136.969 82.4062 134.469C82.4062 131.969 84.4375 129.938 86.9375 129.938C89.4688 129.938 91.4688 131.938 91.4688 134.469Z" fill="#DDB294"/>
<path d="M40.875 120.781C40.875 122.375 39.5938 123.656 38.0312 123.656C36.4375 123.656 35.1875 122.375 35.1875 120.781C35.1875 119.188 36.4688 117.938 38.0312 117.938C39.5938 117.906 40.875 119.188 40.875 120.781Z" fill="#DDB294"/>
<path d="M137.219 34.4688C137.875 34.6562 149.156 36.0312 155.625 36.8125C158.156 37.125 160 39.375 159.812 41.9062L158.938 53.5312C158.812 55.0625 156.719 55.375 156.156 53.9688L153.469 47.1875C152.844 45.5938 151.5 44.4062 149.875 43.9375L136.781 40.2812L137.219 34.4688Z" fill="#3D4151"/>
<path d="M127.969 43.75C128.156 44.4062 129.531 55.6875 130.312 62.1562C130.625 64.6875 132.875 66.5312 135.406 66.3438L147.031 65.4688C148.562 65.3438 148.875 63.25 147.469 62.6875L140.625 59.9688C139.031 59.3438 137.844 58 137.375 56.375L133.719 43.2812L127.969 43.75Z" fill="#3D4151"/>
<path d="M129.344 43.1562C103.125 43.1562 87.125 31.7187 74.9062 20.4375L77.0938 18.0938C89.3438 29.4375 105.531 40.875 132.656 39.9062L132.781 43.0938C131.594 43.125 130.438 43.1562 129.344 43.1562Z" fill="#69698E"/>
<path d="M45.25 56.1562L44.1875 53.1562C60.9063 47.1875 71.6562 35.1875 76.0938 17.5312L79.1875 18.3125C74.4688 37.0625 63.0313 49.8125 45.25 56.1562Z" fill="#69698E"/>
<path d="M77.1875 5.96875L135.25 35.9062L132.688 41.5625L71.9062 17.625L77.1875 5.96875Z" fill="#9191AA"/>
<path d="M31.521 49.2239L69.8127 7.50519L79.2502 16.1719L40.9637 57.8854L31.521 49.2239Z" fill="#9191AA"/>
<path d="M30.3701 56.1094L42.1201 51.0052L56.4535 83.9948L44.7035 89.0989L30.3701 56.1094Z" fill="#9191AA"/>
<path d="M40.3438 79.0625L44.7188 89.0625L56.4375 83.9688L54.3125 79.0625H40.3438Z" fill="#69698E"/>
<path d="M81.6875 87.5312V92.7188H22.0938V87.5312C22.0938 85.25 23.9375 83.4375 26.1875 83.4375H77.5938C79.8438 83.4375 81.6875 85.2812 81.6875 87.5312Z" fill="#7E7E9E"/>
<path d="M102.781 108.844C102.781 109.938 101.875 110.844 100.781 110.844H3C1.90625 110.844 1 109.938 1 108.844C1 98.9375 9.03125 90.875 18.9688 90.875H84.8438C94.7188 90.9062 102.781 98.9375 102.781 108.844Z" fill="#9191AA"/>
<path d="M98.5938 109.656V110.844H5.1875V109.625C5.1875 101.688 11.625 95.2188 19.5938 95.2188H84.2188C92.1562 95.25 98.5938 101.688 98.5938 109.656Z" fill="#3D4151"/>
<path d="M29.25 109.781C29.25 114.938 25.0938 119.094 19.9375 119.094C14.7188 119.094 10.5312 114.938 10.5312 109.781C10.5312 104.563 14.6875 100.375 19.9375 100.375C25.0625 100.406 29.25 104.563 29.25 109.781Z" fill="#9191AA"/>
<path d="M24.8438 109.781C24.8438 112.531 22.625 114.75 19.875 114.75C17.0938 114.75 14.875 112.531 14.875 109.781C14.875 107 17.0938 104.781 19.875 104.781C22.6563 104.781 24.8438 107 24.8438 109.781Z" fill="#E4EAF2"/>
<path d="M50.5625 109.781C50.5625 114.938 46.4063 119.094 41.25 119.094C36.0313 119.094 31.8438 114.938 31.8438 109.781C31.8438 104.563 36 100.375 41.25 100.375C46.4063 100.406 50.5625 104.563 50.5625 109.781Z" fill="#9191AA"/>
<path d="M46.1875 109.781C46.1875 112.531 43.9688 114.75 41.2188 114.75C38.4375 114.75 36.2188 112.531 36.2188 109.781C36.2188 107 38.4375 104.781 41.2188 104.781C43.9688 104.781 46.1875 107 46.1875 109.781Z" fill="#E4EAF2"/>
<path d="M71.9062 109.781C71.9062 114.938 67.75 119.094 62.5938 119.094C57.375 119.094 53.1875 114.938 53.1875 109.781C53.1875 104.563 57.3438 100.375 62.5938 100.375C67.75 100.406 71.9062 104.563 71.9062 109.781Z" fill="#9191AA"/>
<path d="M67.5312 109.781C67.5312 112.531 65.3125 114.75 62.5625 114.75C59.7813 114.75 57.5625 112.531 57.5625 109.781C57.5625 107 59.7813 104.781 62.5625 104.781C65.3125 104.781 67.5312 107 67.5312 109.781Z" fill="#E4EAF2"/>
<path d="M93.25 109.781C93.25 114.938 89.0938 119.094 83.9375 119.094C78.7188 119.094 74.5312 114.938 74.5312 109.781C74.5312 104.563 78.6875 100.375 83.9375 100.375C89.0938 100.406 93.25 104.563 93.25 109.781Z" fill="#9191AA"/>
<path d="M88.875 109.781C88.875 112.531 86.6562 114.75 83.9062 114.75C81.125 114.75 78.9062 112.531 78.9062 109.781C78.9062 107 81.125 104.781 83.9062 104.781C86.6562 104.781 88.875 107 88.875 109.781Z" fill="#E4EAF2"/>
<mask id="mask2_226_417" style="mask-type:luminance" maskUnits="userSpaceOnUse" x="62" y="0" width="25" height="25">
<path d="M62.7031 0H86.7031V24.2135H62.7031V0Z" fill="white"/>
</mask>
<g mask="url(#mask2_226_417)">
<path d="M86.3438 11.9688C86.3438 18.5 81.0625 23.7812 74.5312 23.7812C68 23.7812 62.7188 18.5 62.7188 11.9688C62.7188 5.4375 68 0.125 74.5312 0.125C81.0625 0.125 86.3438 5.4375 86.3438 11.9688Z" fill="#E4EAF2"/>
</g>
<path d="M142.469 40.8438C142.469 45.3438 138.844 48.9688 134.344 48.9688C129.844 48.9688 126.219 45.3438 126.219 40.8438C126.219 36.3438 129.844 32.6875 134.344 32.6875C138.844 32.6875 142.469 36.3438 142.469 40.8438Z" fill="#E4EAF2"/>
<path d="M138.125 40.8125C138.125 42.9062 136.406 44.625 134.312 44.625C132.219 44.625 130.5 42.9062 130.5 40.8125C130.5 38.7187 132.219 37 134.312 37C136.406 37 138.125 38.7187 138.125 40.8125Z" fill="#3D4151"/>
<path d="M48.5 52.6562C48.5 59.1875 43.2188 64.4688 36.6875 64.4688C30.1563 64.4688 24.875 59.1875 24.875 52.6562C24.875 46.125 30.1563 40.8125 36.6875 40.8125C43.2188 40.8125 48.5 46.125 48.5 52.6562Z" fill="#E4EAF2"/>
<path d="M42.6562 52.6562C42.6562 55.9375 40 58.625 36.6875 58.625C33.4063 58.625 30.7188 55.9688 30.7188 52.6562C30.7188 49.3438 33.375 46.6875 36.6875 46.6875C40 46.6875 42.6562 49.3438 42.6562 52.6562Z" fill="#3D4151"/>
<path d="M79.9375 11.969C79.9375 15.2503 77.2812 17.9378 73.9688 17.9378C70.6875 17.9378 68 15.2815 68 11.969C68 8.65652 70.6562 6.00027 73.9688 6.00027C77.2812 5.96902 79.9375 8.65652 79.9375 11.969Z" fill="#3D4151"/>
</svg>
