<svg width="200" height="185" viewBox="0 0 200 185" fill="none" xmlns="http://www.w3.org/2000/svg">
<path d="M114.219 183.281H85.7866V97.5677H114.219V183.281Z" fill="#F5BC2C"/>
<path d="M114.219 183.281H85.7866V97.5677H114.219V183.281Z" fill="#F5BC2C"/>
<path d="M69.5003 75.1094H64.7607V44.2031C64.7607 42.8906 65.8232 41.8333 67.1305 41.8333C68.4378 41.8333 69.5003 42.8906 69.5003 44.2031V75.1094Z" fill="#F5BC2C"/>
<path d="M106.589 155.776C106.589 159.417 103.636 162.375 100 162.375C96.3701 162.375 93.4118 159.417 93.4118 155.776V99.1302C93.4118 98.0729 94.2764 97.2083 95.3389 97.2083H103.631V114.891C103.631 115.974 104.506 116.849 105.584 116.849H106.589V155.776ZM103.631 94.8073V95.1302H95.3389C93.1305 95.1302 91.3389 96.927 91.3389 99.1302V155.776C91.3389 160.562 95.2243 164.453 100 164.453C104.782 164.453 108.667 160.562 108.667 155.776V116.849H109.526C110.604 116.849 111.479 115.974 111.479 114.891V94.8073H103.631Z" fill="#F25C43"/>
<path d="M122.109 101.964H77.8906V57.6823H122.109V101.964Z" fill="#224831"/>
<path d="M51.9481 127.266C46.7502 130.005 43.2918 134.75 42.0054 140.052C47.2502 142.25 53.4012 142.172 58.8231 139.307C64.0158 136.562 67.4741 131.818 68.7606 126.516C63.521 124.318 57.37 124.396 51.9481 127.266Z" fill="#31B052"/>
<path d="M32.0628 127.266C37.2555 130.005 40.7191 134.75 42.0055 140.052C36.7607 142.25 30.6097 142.172 25.1878 139.307C19.9951 136.562 16.5368 131.818 15.2451 126.516C20.4899 124.318 26.6409 124.396 32.0628 127.266Z" fill="#31B052"/>
<path d="M49.271 109.557C45.4741 111.562 42.9481 115.031 42.0054 118.901C45.8387 120.51 50.3335 120.453 54.2918 118.359C58.0887 116.354 60.62 112.885 61.5575 109.016C57.7241 107.406 53.2345 107.464 49.271 109.557Z" fill="#31B052"/>
<path d="M34.7396 109.557C38.5365 111.562 41.0625 115.031 42.0052 118.901C38.1719 120.51 33.6771 120.453 29.7135 118.359C25.9219 116.354 23.3906 112.885 22.4531 109.016C26.2813 107.406 30.776 107.464 34.7396 109.557Z" fill="#31B052"/>
<path d="M51.9481 147.875C46.7502 150.62 43.2918 155.365 42.0054 160.661C47.2502 162.859 53.4012 162.781 58.8231 159.917C64.0158 157.172 67.4741 152.427 68.7606 147.13C63.521 144.927 57.37 145.01 51.9481 147.875Z" fill="#31B052"/>
<path d="M32.0628 147.875C37.2555 150.62 40.7191 155.365 42.0055 160.661C36.7607 162.859 30.6097 162.781 25.1878 159.917C19.9951 157.172 16.5368 152.427 15.2451 147.13C20.4899 144.927 26.6409 145.01 32.0628 147.875Z" fill="#31B052"/>
<mask id="mask0_226_416" style="mask-type:luminance" maskUnits="userSpaceOnUse" x="40" y="117" width="4" height="68">
<path d="M40.6147 117.63H43.2814V185H40.6147V117.63Z" fill="white"/>
</mask>
<g mask="url(#mask0_226_416)">
<path d="M43.0419 184.823H40.969V118.87H43.0419V184.823Z" fill="#224831"/>
</g>
<path d="M170.125 127.266C164.927 130.005 161.469 134.75 160.183 140.052C165.427 142.25 171.573 142.172 176.995 139.307C182.193 136.562 185.651 131.818 186.938 126.516C181.693 124.318 175.542 124.396 170.125 127.266Z" fill="#31B052"/>
<path d="M150.24 127.266C155.432 130.005 158.891 134.75 160.182 140.052C154.938 142.25 148.786 142.172 143.365 139.307C138.167 136.562 134.708 131.818 133.422 126.516C138.667 124.318 144.818 124.396 150.24 127.266Z" fill="#31B052"/>
<path d="M167.443 109.557C163.651 111.562 161.12 115.031 160.183 118.901C164.011 120.51 168.506 120.453 172.469 118.359C176.266 116.354 178.792 112.885 179.735 109.016C175.901 107.406 171.407 107.464 167.443 109.557Z" fill="#31B052"/>
<path d="M152.917 109.557C156.708 111.562 159.24 115.031 160.182 118.901C156.349 120.51 151.854 120.453 147.891 118.359C144.094 116.354 141.568 112.885 140.625 109.016C144.458 107.406 148.953 107.464 152.917 109.557Z" fill="#31B052"/>
<path d="M170.125 147.875C164.927 150.62 161.469 155.365 160.183 160.661C165.427 162.859 171.573 162.781 176.995 159.917C182.193 157.172 185.651 152.427 186.938 147.13C181.693 144.927 175.542 145.01 170.125 147.875Z" fill="#31B052"/>
<path d="M150.24 147.875C155.432 150.62 158.891 155.365 160.182 160.661C154.938 162.859 148.786 162.781 143.365 159.917C138.167 157.172 134.708 152.427 133.422 147.13C138.667 144.927 144.818 145.01 150.24 147.875Z" fill="#31B052"/>
<mask id="mask1_226_416" style="mask-type:luminance" maskUnits="userSpaceOnUse" x="157" y="117" width="5" height="68">
<path d="M157.948 117.63H161.948V185H157.948V117.63Z" fill="white"/>
</mask>
<g mask="url(#mask1_226_416)">
<path d="M161.219 184.823H159.141V118.87H161.219V184.823Z" fill="#224831"/>
</g>
<mask id="mask2_226_416" style="mask-type:luminance" maskUnits="userSpaceOnUse" x="0" y="181" width="200" height="4">
<path d="M0 181.63H200V185H0V181.63Z" fill="white"/>
</mask>
<g mask="url(#mask2_226_416)">
<path d="M199.974 184.969H0.026123V182.599H199.974V184.969Z" fill="#31B052"/>
</g>
<path d="M90.6719 66.5052C90.6719 68.3906 89.1458 69.9167 87.2656 69.9167C85.3854 69.9167 83.8594 68.3906 83.8594 66.5052C83.8594 64.625 85.3854 63.0938 87.2656 63.0938C89.1458 63.0938 90.6719 64.625 90.6719 66.5052Z" fill="#F25C43"/>
<path d="M78.8232 77.0364H64.7607V74.6614H78.8232V77.0364Z" fill="#224831"/>
<mask id="mask3_226_416" style="mask-type:luminance" maskUnits="userSpaceOnUse" x="63" y="0" width="74" height="18">
<path d="M63.2812 0H136.615V17.6302H63.2812V0Z" fill="white"/>
</mask>
<g mask="url(#mask3_226_416)">
<path d="M100 -0.020874C85.6095 -0.020874 72.6042 6.05204 63.4167 15.7812L64.7605 17.3802C73.5834 7.95308 86.1147 2.05725 100 2.05725C113.886 2.05725 126.422 7.95308 135.245 17.3802L136.589 15.7812C127.401 6.05204 114.396 -0.020874 100 -0.020874Z" fill="#F5BC2C"/>
</g>
<path d="M100 16.0469C89.5417 16.0469 80.1615 20.7604 73.8594 28.1719L75.2135 29.776C81.1354 22.6615 90.0469 18.125 100 18.125C109.953 18.125 118.865 22.6615 124.786 29.776L126.146 28.1719C119.839 20.7604 110.464 16.0469 100 16.0469Z" fill="#F5BC2C"/>
<path d="M100 32.1146C93.4583 32.1146 87.7083 35.5729 84.4688 40.7604L85.8854 42.4427C88.6771 37.5208 93.9583 34.1927 100 34.1927C106.047 34.1927 111.323 37.5208 114.115 42.4427L115.531 40.7656C112.297 35.5729 106.547 32.1146 100 32.1146Z" fill="#F5BC2C"/>
</svg>
