<svg width="27" height="26" viewBox="0 0 27 26" fill="none" xmlns="http://www.w3.org/2000/svg">
<path d="M25.1969 0.0183811L1.93216 0.240354C0.866142 0.250525 0.00476735 1.09242 0.0106197 2.11578L0.136675 24.1582C0.142527 25.1816 1.01344 26.0069 2.07946 25.9968L25.3441 25.7748C26.4102 25.7646 27.2776 24.9227 27.2717 23.8993L27.1457 1.85688C27.1398 0.833522 26.2629 0.00821 25.1969 0.0183811ZM8.32734 22.2575L4.30554 22.2958L4.23524 10.004L8.26311 9.96562L8.3334 22.2574L8.32734 22.2575ZM6.23655 8.3061C4.94642 8.31841 3.89894 7.33373 3.89197 6.1149C3.885 4.89607 4.9211 3.89152 6.21123 3.87921C7.4953 3.86696 8.54884 4.85158 8.55581 6.07041C8.56281 7.29499 7.52667 8.29379 6.23655 8.3061ZM23.4031 22.1136L19.3812 22.152L19.3471 16.1728C19.3389 14.747 19.2981 12.9133 17.2388 12.933C15.1431 12.953 14.8309 14.5083 14.8401 16.1123L14.8749 22.195L10.8531 22.2334L10.7828 9.94158L14.6411 9.90476L14.6507 11.5835L14.7052 11.583C15.2387 10.612 16.5473 9.58185 18.5036 9.56319C22.5739 9.52435 23.3456 12.064 23.3645 15.3756L23.4031 22.1136Z" fill="#0288D1"/>
</svg>
