<svg width="25" height="24" viewBox="0 0 25 24" fill="none" xmlns="http://www.w3.org/2000/svg">
<g clip-path="url(#clip0_94_95)">
<path d="M21.5298 1.5H3.5251C2.7001 1.5 2.02979 2.17969 2.02979 3.01406V20.9859C2.02979 21.8203 2.7001 22.5 3.5251 22.5H21.5298C22.3548 22.5 23.0298 21.8203 23.0298 20.9859V3.01406C23.0298 2.17969 22.3548 1.5 21.5298 1.5ZM8.37666 19.5H5.26416V9.47812H8.38135V19.5H8.37666ZM6.82041 8.10938C5.82197 8.10938 5.01572 7.29844 5.01572 6.30469C5.01572 5.31094 5.82197 4.5 6.82041 4.5C7.81416 4.5 8.6251 5.31094 8.6251 6.30469C8.6251 7.30312 7.81885 8.10938 6.82041 8.10938ZM20.0438 19.5H16.9313V14.625C16.9313 13.4625 16.9079 11.9672 15.3142 11.9672C13.6923 11.9672 13.4438 13.2328 13.4438 14.5406V19.5H10.3313V9.47812H13.3173V10.8469H13.3595C13.7767 10.0594 14.7938 9.22969 16.3079 9.22969C19.4579 9.22969 20.0438 11.3062 20.0438 14.0062V19.5Z" fill="#0288D1"/>
</g>
<defs>
<clipPath id="clip0_94_95">
<rect width="24" height="24" fill="white" transform="translate(0.529785)"/>
</clipPath>
</defs>
</svg>
