<svg width="47" height="48" viewBox="0 0 47 48" fill="none" xmlns="http://www.w3.org/2000/svg">
<path d="M35.3265 31.753C33.8085 30.2048 31.9134 30.2048 30.405 31.753C29.2544 32.9316 28.1038 34.1102 26.9725 35.3088C26.6631 35.6384 26.402 35.7083 26.0249 35.4886C25.2804 35.0691 24.4876 34.7295 23.7721 34.27C20.4362 32.1026 17.6419 29.3158 15.1666 26.1795C13.9387 24.6213 12.8461 22.9532 12.0822 21.0754C11.9275 20.6959 11.9565 20.4461 12.2563 20.1365C13.4069 18.9878 14.5285 17.8092 15.6598 16.6306C17.2358 14.9925 17.2358 13.0747 15.6501 11.4267C14.7509 10.4878 13.8517 9.56884 12.9524 8.62993C12.0242 7.67105 11.1057 6.70218 10.1678 5.75329C8.64973 4.22507 6.75461 4.22507 5.24624 5.76328C4.08596 6.9419 2.97403 8.15049 1.79441 9.30914C0.701811 10.3779 0.150678 11.6864 0.0346501 13.2146C-0.149061 15.7017 0.440748 18.0489 1.27228 20.3363C2.97403 25.0708 5.56532 29.2758 8.70775 33.1314C12.9524 38.3453 18.019 42.4705 23.9461 45.447C26.6147 46.7854 29.3801 47.8142 32.3871 47.984C34.4563 48.1039 36.2547 47.5645 37.6954 45.8965C38.6817 44.7578 39.7936 43.719 40.8378 42.6303C42.3849 41.0122 42.3946 39.0544 40.8572 37.4563C39.0201 35.5485 37.1733 33.6507 35.3265 31.753ZM33.4797 23.7922L37.0476 23.163C36.4868 19.7769 34.9398 16.7105 32.5902 14.2733C30.1052 11.7063 26.9628 10.0882 23.5013 9.58881L22.9985 13.2945C25.6768 13.684 28.1134 14.9326 30.0376 16.9203C31.8553 18.7981 33.0446 21.1753 33.4797 23.7922ZM39.0587 7.77093C34.9398 3.5159 29.7282 0.829033 23.9751 0L23.4723 3.70568C28.4422 4.42484 32.9479 6.75212 36.5061 10.4178C39.8806 13.9038 42.0948 18.3086 42.8973 23.153L46.4652 22.5237C45.5273 16.9103 42.965 11.8162 39.0587 7.77093Z" fill="white"/>
</svg>
