<svg width="47" height="30" viewBox="0 0 47 30" fill="none" xmlns="http://www.w3.org/2000/svg">
<path d="M46.9878 0.591255C46.983 0.562127 46.9841 0.532999 46.9755 0.504091C46.9661 0.472506 46.9547 0.441273 46.9408 0.410741C46.9366 0.401441 46.9287 0.3953 46.9242 0.386263C46.9205 0.378894 46.9211 0.370691 46.9171 0.363365C46.9058 0.34266 46.8866 0.330552 46.8736 0.311426C46.8402 0.261944 46.8049 0.216234 46.7615 0.1775C46.7359 0.154513 46.7093 0.136265 46.681 0.11749C46.6373 0.0884057 46.5925 0.0649368 46.5438 0.0461616C46.5117 0.0338349 46.4812 0.0227804 46.4476 0.0151914C46.3958 0.00330343 46.3437 0.000495922 46.2899 0.00062752C46.257 0.000715275 46.2257 -0.00187291 46.1929 0.00286474C46.1813 0.00453167 46.1699 0.00137328 46.1583 0.00365435L0.590579 7.98642C0.30577 8.03625 0.0793833 8.25489 0.0167878 8.5395C-0.0454599 8.82411 0.0686029 9.11854 0.30577 9.28489L9.1046 15.4554L14.1748 29.5163C14.1748 29.5161 14.1749 29.5165 14.1748 29.5163L14.1787 29.5269C14.2083 29.6092 14.2542 29.68 14.3077 29.7435C14.3126 29.7493 14.3138 29.7568 14.3188 29.7624C14.3293 29.7742 14.3443 29.7781 14.3554 29.789C14.4066 29.8395 14.4632 29.8808 14.5265 29.9135C14.549 29.9252 14.5697 29.9374 14.593 29.9465C14.6739 29.9782 14.7585 30 14.8477 30C14.848 30 14.8489 29.9999 14.8492 29.9999C14.8918 29.9998 14.9351 29.9961 14.9785 29.9877C14.9996 29.9838 15.0164 29.9712 15.0367 29.9655C15.0769 29.9543 15.1144 29.9397 15.1526 29.9212C15.1949 29.9006 15.2331 29.8771 15.2701 29.849C15.2876 29.8358 15.3083 29.8304 15.3248 29.8154L21.8246 23.9072L27.1077 27.4273C27.4252 27.6392 27.8526 27.5613 28.0762 27.2497L46.8622 1.14139C46.8816 1.11542 46.899 1.0884 46.9143 1.06033L46.9147 1.05962C46.9397 1.01505 46.9592 0.968029 46.9738 0.919951C46.9744 0.918153 46.9741 0.916222 46.9747 0.914424C46.9774 0.904992 46.9767 0.895078 46.9791 0.885559C46.997 0.815152 47.0029 0.742465 46.9987 0.668198C46.9972 0.642009 46.9922 0.617312 46.9878 0.591255ZM2.54321 9.10345L39.3215 2.66025L9.79246 14.1875L2.54321 9.10345ZM10.6045 15.4115L36.6021 5.26293L14.299 17.6302C14.2986 17.6303 14.2985 17.6307 14.2981 17.6309C14.2228 17.6728 14.1613 17.7304 14.1069 17.794C14.0922 17.8112 14.0794 17.8282 14.0664 17.8467C14.0256 17.9044 13.9932 17.9666 13.9708 18.0341C13.9669 18.0458 13.9604 18.0558 13.9571 18.0677C13.9388 18.1339 13.9284 18.2029 13.9297 18.2738L14.0552 24.9812L10.6045 15.4115ZM15.5308 27.6932L15.3794 19.613L20.5962 23.0888L15.5308 27.6932ZM27.324 25.8491L16.019 18.3166L43.8466 2.88594L27.324 25.8491Z" fill="white"/>
</svg>
