<svg width="25" height="24" viewBox="0 0 25 24" fill="none" xmlns="http://www.w3.org/2000/svg">
<g clip-path="url(#clip0_94_89)">
<path d="M22.0628 7.11169C22.078 7.32488 22.078 7.53811 22.078 7.7513C22.078 14.2538 17.1288 21.7462 8.08308 21.7462C5.29627 21.7462 2.70746 20.9391 0.529785 19.5381C0.925738 19.5838 1.30641 19.599 1.7176 19.599C4.01705 19.599 6.13383 18.8224 7.82419 17.4975C5.66175 17.4518 3.84957 16.0356 3.22519 14.0863C3.52978 14.132 3.83433 14.1624 4.15416 14.1624C4.59577 14.1624 5.03743 14.1015 5.44857 13.995C3.19477 13.5381 1.50436 11.5584 1.50436 9.16753V9.10664C2.15916 9.47213 2.92064 9.70055 3.72769 9.73097C2.40282 8.8477 1.53483 7.34011 1.53483 5.63452C1.53483 4.72083 1.77844 3.88327 2.20486 3.1523C4.62619 6.13706 8.2658 8.08627 12.347 8.2995C12.2708 7.93402 12.2251 7.55335 12.2251 7.17263C12.2251 4.46194 14.418 2.25385 17.1439 2.25385C18.5602 2.25385 19.8393 2.84775 20.7378 3.80714C21.8495 3.59395 22.9155 3.18277 23.8597 2.61933C23.4941 3.76149 22.7175 4.72088 21.6972 5.32997C22.6871 5.22342 23.6465 4.94925 24.5297 4.56858C23.8598 5.54316 23.0221 6.41114 22.0628 7.11169Z" fill="#03A9F4"/>
</g>
<defs>
<clipPath id="clip0_94_89">
<rect width="24" height="24" fill="white" transform="translate(0.529785)"/>
</clipPath>
</defs>
</svg>
