<svg width="221" height="187" viewBox="0 0 221 187" fill="none" xmlns="http://www.w3.org/2000/svg">
<path d="M126.212 185.263H94.7944V98.6224H126.212V185.263Z" fill="#F5BC2C"/>
<path d="M126.212 185.263H94.7944V98.6224H126.212V185.263Z" fill="#F5BC2C"/>
<path d="M76.7978 75.9212H71.5605V44.6808C71.5605 43.3541 72.7346 42.2854 74.1792 42.2854C75.6237 42.2854 76.7978 43.3541 76.7978 44.6808V75.9212Z" fill="#F5BC2C"/>
<path d="M117.78 157.46C117.78 161.14 114.517 164.13 110.5 164.13C106.489 164.13 103.22 161.14 103.22 157.46V100.202C103.22 99.1332 104.175 98.2593 105.349 98.2593H114.511V116.133C114.511 117.228 115.478 118.112 116.67 118.112H117.78V157.46ZM114.511 95.8323V96.1587H105.349C102.909 96.1587 100.929 97.975 100.929 100.202V157.46C100.929 162.298 105.223 166.231 110.5 166.231C115.783 166.231 120.077 162.298 120.077 157.46V118.112H121.026C122.218 118.112 123.185 117.228 123.185 116.133V95.8323H114.511Z" fill="#F25C43"/>
<path d="M134.931 103.066H86.0693V58.3059H134.931V103.066Z" fill="#224831"/>
<path d="M57.4027 128.642C51.659 131.411 47.8376 136.207 46.416 141.566C52.2115 143.788 59.0084 143.709 64.9996 140.813C70.7375 138.039 74.559 133.243 75.9805 127.883C70.1908 125.662 63.3939 125.741 57.4027 128.642Z" fill="#31B052"/>
<path d="M35.4293 128.642C41.1672 131.411 44.9944 136.207 46.416 141.566C40.6205 143.788 33.8236 143.709 27.8324 140.813C22.0945 138.039 18.273 133.243 16.8457 127.883C22.6412 125.662 29.4381 125.741 35.4293 128.642Z" fill="#31B052"/>
<path d="M54.4445 110.742C50.249 112.768 47.4577 116.275 46.416 120.186C50.6518 121.813 55.6186 121.755 59.9926 119.639C64.1881 117.612 66.9851 114.106 68.0211 110.194C63.7852 108.567 58.8242 108.625 54.4445 110.742Z" fill="#31B052"/>
<path d="M38.3871 110.742C42.5826 112.768 45.3739 116.275 46.4156 120.186C42.1798 121.813 37.213 121.755 32.8333 119.639C28.6435 117.612 25.8465 114.106 24.8105 110.194C29.0406 108.567 34.0074 108.625 38.3871 110.742Z" fill="#31B052"/>
<path d="M57.4027 149.474C51.659 152.248 47.8376 157.044 46.416 162.398C52.2115 164.62 59.0084 164.541 64.9996 161.646C70.7375 158.871 74.559 154.075 75.9805 148.721C70.1908 146.494 63.3939 146.578 57.4027 149.474Z" fill="#31B052"/>
<path d="M35.4293 149.474C41.1672 152.248 44.9944 157.044 46.416 162.398C40.6205 164.62 33.8236 164.541 27.8324 161.646C22.0945 158.871 18.273 154.075 16.8457 148.721C22.6412 146.494 29.4381 146.578 35.4293 149.474Z" fill="#31B052"/>
<mask id="mask0_273_362" style="mask-type:luminance" maskUnits="userSpaceOnUse" x="44" y="118" width="4" height="69">
<path d="M44.8794 118.902H47.8261V187H44.8794V118.902Z" fill="white"/>
</mask>
<g mask="url(#mask0_273_362)">
<path d="M47.5611 186.821H45.2705V120.155H47.5611V186.821Z" fill="#224831"/>
</g>
<path d="M187.989 128.642C182.245 131.411 178.423 136.207 177.002 141.566C182.797 143.788 189.589 143.709 195.58 140.813C201.323 138.039 205.145 133.243 206.566 127.883C200.771 125.662 193.974 125.741 187.989 128.642Z" fill="#31B052"/>
<path d="M166.015 128.642C171.753 131.411 175.574 136.207 177.001 141.566C171.206 143.788 164.409 143.709 158.418 140.813C152.674 138.039 148.853 133.243 147.431 127.883C153.227 125.662 160.024 125.741 166.015 128.642Z" fill="#31B052"/>
<path d="M185.025 110.742C180.835 112.768 178.038 116.275 177.002 120.186C181.232 121.813 186.199 121.755 190.578 119.639C194.774 117.612 197.565 114.106 198.607 110.194C194.371 108.567 189.404 108.625 185.025 110.742Z" fill="#31B052"/>
<path d="M168.973 110.742C173.163 112.768 175.96 116.275 177.001 120.186C172.766 121.813 167.799 121.755 163.419 119.639C159.224 117.612 156.432 114.106 155.391 110.194C159.626 108.567 164.593 108.625 168.973 110.742Z" fill="#31B052"/>
<path d="M187.989 149.474C182.245 152.248 178.423 157.044 177.002 162.398C182.797 164.62 189.589 164.541 195.58 161.646C201.323 158.871 205.145 154.075 206.566 148.721C200.771 146.494 193.974 146.578 187.989 149.474Z" fill="#31B052"/>
<path d="M166.015 149.474C171.753 152.248 175.574 157.044 177.001 162.398C171.206 164.62 164.409 164.541 158.418 161.646C152.674 158.871 148.853 154.075 147.431 148.721C153.227 146.494 160.024 146.578 166.015 149.474Z" fill="#31B052"/>
<mask id="mask1_273_362" style="mask-type:luminance" maskUnits="userSpaceOnUse" x="174" y="118" width="5" height="69">
<path d="M174.533 118.902H178.953V187H174.533V118.902Z" fill="white"/>
</mask>
<g mask="url(#mask1_273_362)">
<path d="M178.147 186.821H175.851V120.155H178.147V186.821Z" fill="#224831"/>
</g>
<mask id="mask2_273_362" style="mask-type:luminance" maskUnits="userSpaceOnUse" x="0" y="183" width="221" height="4">
<path d="M0 183.594H221V187H0V183.594Z" fill="white"/>
</mask>
<g mask="url(#mask2_273_362)">
<path d="M220.971 186.968H0.0283203V184.573H220.971V186.968Z" fill="#31B052"/>
</g>
<path d="M100.192 67.2241C100.192 69.1299 98.5061 70.6724 96.4285 70.6724C94.3508 70.6724 92.6646 69.1299 92.6646 67.2241C92.6646 65.3236 94.3508 63.7758 96.4285 63.7758C98.5061 63.7758 100.192 65.3236 100.192 67.2241Z" fill="#F25C43"/>
<path d="M87.0996 77.8692H71.5605V75.4685H87.0996V77.8692Z" fill="#224831"/>
<mask id="mask3_273_362" style="mask-type:luminance" maskUnits="userSpaceOnUse" x="69" y="0" width="82" height="18">
<path d="M69.9258 0H150.959V17.8208H69.9258V0Z" fill="white"/>
</mask>
<g mask="url(#mask3_273_362)">
<path d="M110.499 -0.0211182C94.5977 -0.0211182 80.2269 6.11745 70.0747 15.9518L71.5596 17.568C81.3089 8.03905 95.1559 2.07947 110.499 2.07947C125.843 2.07947 139.695 8.03905 149.445 17.568L150.93 15.9518C140.777 6.11745 126.407 -0.0211182 110.499 -0.0211182Z" fill="#F5BC2C"/>
</g>
<path d="M110.5 16.2205C98.9437 16.2205 88.5785 20.985 81.6147 28.4765L83.1111 30.098C89.6548 22.9066 99.5019 18.3211 110.5 18.3211C121.498 18.3211 131.346 22.9066 137.889 30.098L139.391 28.4765C132.422 20.985 122.062 16.2205 110.5 16.2205Z" fill="#F5BC2C"/>
<path d="M110.5 32.4617C103.271 32.4617 96.9176 35.9574 93.3379 41.201L94.9033 42.9015C97.9881 37.9264 103.824 34.5623 110.5 34.5623C117.182 34.5623 123.012 37.9264 126.097 42.9015L127.662 41.2062C124.088 35.9574 117.734 32.4617 110.5 32.4617Z" fill="#F5BC2C"/>
</svg>
