<svg width="1367" height="376" viewBox="0 0 1367 376" fill="none" xmlns="http://www.w3.org/2000/svg">
<g filter="url(#filter0_d_404_408)">
<path d="M4.59041 331.165C4.43203 331.391 4.48702 331.703 4.71323 331.861C4.93944 332.019 5.25121 331.964 5.40959 331.738L4.59041 331.165ZM236.359 1L236.742 0.678485L236.323 0.17959L235.949 0.713233L236.359 1ZM359.955 148.201L359.572 148.523L359.761 148.748L360.051 148.692L359.955 148.201ZM503.469 120.163L503.653 119.698L503.517 119.644L503.373 119.672L503.469 120.163ZM648.515 177.741L648.946 177.488L648.859 177.34L648.7 177.277L648.515 177.741ZM716.953 293.9L716.522 294.154L716.578 294.25L716.67 294.313L716.953 293.9ZM823.694 367L823.412 367.413L823.54 367.5H823.694V367ZM966.698 367V367.5H966.922L967.071 367.333L966.698 367ZM1075.48 244.833L1075.86 245.166L1075.9 245.119L1075.93 245.064L1075.48 244.833ZM1140.34 120.163L1140.24 119.675L1140.01 119.726L1139.9 119.932L1140.34 120.163ZM1211.85 104.141L1211.96 103.655L1211.85 103.628L1211.74 103.653L1211.85 104.141ZM1278.75 120.163L1279.13 119.833L1279.02 119.714L1278.87 119.677L1278.75 120.163ZM1345.15 195.766L1344.77 196.096L1345.13 196.511L1345.51 196.108L1345.15 195.766ZM5.40959 331.738L11.1936 323.477L10.3744 322.903L4.59041 331.165L5.40959 331.738ZM22.7615 306.954L34.3295 290.432L33.5103 289.858L21.9423 306.381L22.7615 306.954ZM45.8974 273.909L57.4654 257.387L56.6462 256.813L45.0782 273.336L45.8974 273.909ZM69.0333 240.864L80.6013 224.342L79.7821 223.768L68.2141 240.291L69.0333 240.864ZM92.1692 207.819L103.737 191.296L102.918 190.723L91.3501 207.245L92.1692 207.819ZM115.305 174.774L126.873 158.251L126.054 157.678L114.486 174.2L115.305 174.774ZM138.441 141.729L150.009 125.206L149.19 124.633L137.622 141.155L138.441 141.729ZM161.577 108.684L173.145 92.1609L172.326 91.5874L160.758 108.11L161.577 108.684ZM184.713 75.6383L196.281 59.1158L195.462 58.5422L183.894 75.0648L184.713 75.6383ZM207.849 42.5932L219.417 26.0706L218.598 25.497L207.03 42.0196L207.849 42.5932ZM230.985 9.54801L236.769 1.28677L235.949 0.713233L230.166 8.97447L230.985 9.54801ZM235.976 1.32151L242.156 8.68157L242.922 8.03854L236.742 0.678485L235.976 1.32151ZM254.516 23.4017L266.875 38.1218L267.641 37.4788L255.281 22.7587L254.516 23.4017ZM279.235 52.8419L291.594 67.562L292.36 66.919L280 52.1989L279.235 52.8419ZM303.954 82.2821L316.313 97.0022L317.079 96.3592L304.72 81.6391L303.954 82.2821ZM328.673 111.722L341.033 126.442L341.798 125.799L329.439 111.079L328.673 111.722ZM353.392 141.163L359.572 148.523L360.338 147.88L354.158 140.52L353.392 141.163ZM360.051 148.692L369.02 146.939L368.829 145.958L359.859 147.71L360.051 148.692ZM386.96 143.435L404.899 139.93L404.707 138.948L386.768 142.453L386.96 143.435ZM422.838 136.425L440.777 132.92L440.586 131.939L422.646 135.444L422.838 136.425ZM458.717 129.415L476.656 125.911L476.464 124.929L458.525 128.434L458.717 129.415ZM494.595 122.406L503.565 120.654L503.373 119.672L494.403 121.424L494.595 122.406ZM503.284 120.628L512.35 124.226L512.719 123.297L503.653 119.698L503.284 120.628ZM530.481 131.424L548.611 138.621L548.98 137.691L530.85 130.494L530.481 131.424ZM566.742 145.818L584.873 153.016L585.242 152.086L567.111 144.889L566.742 145.818ZM603.004 160.213L621.135 167.41L621.504 166.481L603.373 159.283L603.004 160.213ZM639.265 174.608L648.331 178.206L648.7 177.277L639.634 173.678L639.265 174.608ZM648.084 177.995L653.788 187.675L654.649 187.168L648.946 177.488L648.084 177.995ZM665.194 207.035L676.6 226.395L677.462 225.887L666.055 206.527L665.194 207.035ZM688.006 245.755L699.412 265.114L700.274 264.607L688.868 245.247L688.006 245.755ZM710.819 284.474L716.522 294.154L717.383 293.646L711.68 283.966L710.819 284.474ZM716.67 294.313L725.565 300.404L726.13 299.579L717.235 293.488L716.67 294.313ZM743.356 312.588L761.146 324.771L761.711 323.946L743.921 311.763L743.356 312.588ZM778.936 336.954L796.726 349.138L797.291 348.313L779.501 336.129L778.936 336.954ZM814.517 361.321L823.412 367.413L823.977 366.587L815.082 360.496L814.517 361.321ZM823.694 367.5H832.632V366.5H823.694V367.5ZM850.508 367.5H868.383V366.5H850.508V367.5ZM886.258 367.5H904.134V366.5H886.258V367.5ZM922.009 367.5H939.885V366.5H922.009V367.5ZM957.76 367.5H966.698V366.5H957.76V367.5ZM967.071 367.333L973.87 359.697L973.123 359.032L966.324 366.668L967.071 367.333ZM987.468 344.426L1001.07 329.155L1000.32 328.49L986.721 343.761L987.468 344.426ZM1014.66 313.885L1028.26 298.614L1027.52 297.949L1013.92 313.219L1014.66 313.885ZM1041.86 283.343L1055.46 268.072L1054.71 267.407L1041.11 282.678L1041.86 283.343ZM1069.06 252.801L1075.86 245.166L1075.11 244.501L1068.31 252.136L1069.06 252.801ZM1075.93 245.064L1079.98 237.272L1079.09 236.81L1075.04 244.602L1075.93 245.064ZM1088.09 221.688L1096.2 206.104L1095.31 205.643L1087.2 221.227L1088.09 221.688ZM1104.3 190.521L1112.41 174.937L1111.52 174.475L1103.42 190.059L1104.3 190.521ZM1120.52 159.353L1128.63 143.769L1127.74 143.308L1119.63 158.891L1120.52 159.353ZM1136.73 128.185L1140.79 120.394L1139.9 119.932L1135.85 127.724L1136.73 128.185ZM1140.45 120.651L1149.39 118.648L1149.17 117.672L1140.24 119.675L1140.45 120.651ZM1167.27 114.642L1185.14 110.637L1184.92 109.661L1167.05 113.667L1167.27 114.642ZM1203.02 106.632L1211.96 104.629L1211.74 103.653L1202.8 105.656L1203.02 106.632ZM1211.73 104.627L1220.09 106.63L1220.33 105.657L1211.96 103.655L1211.73 104.627ZM1236.82 110.635L1253.55 114.641L1253.78 113.668L1237.05 109.663L1236.82 110.635ZM1270.27 118.646L1278.64 120.649L1278.87 119.677L1270.5 117.674L1270.27 118.646ZM1278.38 120.493L1283.91 126.793L1284.66 126.133L1279.13 119.833L1278.38 120.493ZM1294.97 139.394L1306.04 151.994L1306.79 151.334L1295.73 138.734L1294.97 139.394ZM1317.11 164.595L1328.17 177.195L1328.92 176.535L1317.86 163.935L1317.11 164.595ZM1339.24 189.796L1344.77 196.096L1345.52 195.436L1339.99 189.136L1339.24 189.796ZM1345.51 196.108L1349.72 191.601L1348.99 190.918L1344.78 195.425L1345.51 196.108ZM1358.15 182.589L1362.37 178.083L1361.63 177.4L1357.42 181.906L1358.15 182.589Z" fill="black"/>
</g>
<defs>
<filter id="filter0_d_404_408" x="0.5" y="0.179688" width="1365.87" height="375.32" filterUnits="userSpaceOnUse" color-interpolation-filters="sRGB">
<feFlood flood-opacity="0" result="BackgroundImageFix"/>
<feColorMatrix in="SourceAlpha" type="matrix" values="0 0 0 0 0 0 0 0 0 0 0 0 0 0 0 0 0 0 127 0" result="hardAlpha"/>
<feOffset dy="4"/>
<feGaussianBlur stdDeviation="2"/>
<feComposite in2="hardAlpha" operator="out"/>
<feColorMatrix type="matrix" values="0 0 0 0 0 0 0 0 0 0 0 0 0 0 0 0 0 0 0.25 0"/>
<feBlend mode="normal" in2="BackgroundImageFix" result="effect1_dropShadow_404_408"/>
<feBlend mode="normal" in="SourceGraphic" in2="effect1_dropShadow_404_408" result="shape"/>
</filter>
</defs>
</svg>
