<svg width="21" height="20" viewBox="0 0 21 20" fill="none" xmlns="http://www.w3.org/2000/svg">
<path fill-rule="evenodd" clip-rule="evenodd" d="M10.4996 0C4.70435 0 0 4.48071 0 10C0 15.5193 4.70435 20 10.4996 20C16.2949 20 21 15.5193 21 10C21 4.48071 16.2949 0 10.4996 0ZM9.74933 9.28571H6.74965C6.33549 9.28571 5.99936 9.60571 5.99936 10C5.99936 10.3943 6.33549 10.7143 6.74965 10.7143H9.74933V13.5714C9.74933 13.9657 10.0855 14.2857 10.4996 14.2857C10.9138 14.2857 11.2499 13.9657 11.2499 13.5714V10.7143H14.2496C14.6638 10.7143 14.9999 10.3943 14.9999 10C14.9999 9.60571 14.6638 9.28571 14.2496 9.28571H11.2499V6.42857C11.2499 6.03429 10.9138 5.71429 10.4996 5.71429C10.0855 5.71429 9.74933 6.03429 9.74933 6.42857V9.28571Z" fill="#344C11" fill-opacity="0.8"/>
</svg>
