<svg width="37" height="34" viewBox="0 0 37 34" fill="none" xmlns="http://www.w3.org/2000/svg">
<path d="M32.1564 28.1381C32.5551 27.7449 32.9312 27.3338 33.2832 26.9064L33.4009 26.7862C33.7204 26.3807 34.0232 25.9751 34.3091 25.5545C34.3709 25.483 34.4271 25.4077 34.4773 25.3292C34.7239 24.9187 34.9594 24.5131 35.1836 24.1126C35.1836 23.9924 35.3013 23.8872 35.3686 23.7821C35.5536 23.3916 35.7386 22.986 35.89 22.5804L36.075 22.1749C36.2095 21.7843 36.3273 21.3938 36.445 20.9882C36.445 20.823 36.5459 20.6578 36.5795 20.5076C36.6804 20.087 36.7477 19.6814 36.815 19.2609C36.815 19.0956 36.815 18.9454 36.8991 18.7802C36.9671 18.1964 37.0008 17.6098 37 17.0228C37 12.6407 35.0509 8.43803 31.5815 5.33941C28.112 2.24079 23.4065 0.5 18.5 0.5C13.5935 0.5 8.88795 2.24079 5.41853 5.33941C1.94911 8.43803 1.41678e-05 12.6407 1.41678e-05 17.0228C-0.000792997 17.6098 0.0328896 18.1964 0.100923 18.7802C0.100923 18.9454 0.100923 19.0956 0.185014 19.2609C0.185014 19.6814 0.319559 20.087 0.420468 20.5076C0.420468 20.6578 0.521377 20.823 0.555014 20.9882C0.672741 21.3938 0.790468 21.7843 0.925014 22.1749L1.11001 22.5804C1.26138 22.986 1.44638 23.3916 1.63138 23.7821L1.81638 24.1126C2.04062 24.5231 2.27607 24.9287 2.52274 25.3292L2.69092 25.5545C2.97683 25.9751 3.27956 26.3807 3.5991 26.7862L3.71683 26.9064C4.06882 27.3338 4.44491 27.7449 4.84365 28.1381C5.26687 28.5511 5.71608 28.9423 6.1891 29.3097C9.55832 32.0078 13.9243 33.5 18.4495 33.5C22.9748 33.5 27.3408 32.0078 30.71 29.3097C31.183 28.9423 31.6322 28.5511 32.0554 28.1381H32.1564ZM18.5 8.76139C19.6642 8.76139 20.8023 9.06972 21.7703 9.6474C22.7383 10.2251 23.4928 11.0461 23.9383 12.0068C24.3838 12.9674 24.5004 14.0245 24.2733 15.0443C24.0461 16.0641 23.4855 17.0008 22.6623 17.7361C21.8391 18.4713 20.7902 18.972 19.6484 19.1749C18.5065 19.3777 17.323 19.2736 16.2474 18.8757C15.1718 18.4778 14.2525 17.804 13.6057 16.9394C12.9589 16.0749 12.6136 15.0584 12.6136 14.0186C12.6136 12.6243 13.2338 11.2871 14.3377 10.3012C15.4416 9.31528 16.9388 8.76139 18.5 8.76139ZM7.24865 26.0352C8.66804 24.6265 10.4032 23.5001 12.3415 22.729C14.2799 21.9579 16.3781 21.5595 18.5 21.5595C20.6219 21.5595 22.7201 21.9579 24.6585 22.729C26.5968 23.5001 28.332 24.6265 29.7514 26.0352C28.3406 27.4566 26.6083 28.5945 24.6688 29.3738C22.7293 30.1532 20.6267 30.5561 18.5 30.5561C16.3733 30.5561 14.2707 30.1532 12.3312 29.3738C10.3917 28.5945 8.65939 27.4566 7.24865 26.0352Z" fill="#344C11" fill-opacity="0.8"/>
</svg>
