<svg width="23" height="24" viewBox="0 0 23 24" fill="none" xmlns="http://www.w3.org/2000/svg">
<path d="M22.5069 20.9271L16.2107 14.3922C17.1877 12.9141 17.7305 11.1248 17.7305 9.2188C17.7667 4.12318 13.7864 0 8.90144 0C3.98032 0 0 4.12318 0 9.2188C0 14.3144 3.98032 18.4376 8.86525 18.4376C10.7107 18.4376 12.4114 17.8541 13.8587 16.8428L20.1911 23.4943C20.5167 23.8444 20.9148 24 21.349 24C21.7832 24 22.2174 23.8055 22.5431 23.4554C23.1582 22.7553 23.1582 21.6272 22.5069 20.9271ZM3.14807 9.2188C3.14807 5.91248 5.71718 3.22853 8.90144 3.22853C12.0857 3.22853 14.6548 5.91248 14.6548 9.2188C14.6548 12.5251 12.0857 15.2091 8.90144 15.2091C5.71718 15.2091 3.14807 12.5251 3.14807 9.2188Z" fill="#344C11" fill-opacity="0.8"/>
</svg>
